<svg xmlns="http://www.w3.org/2000/svg" xmlns:xlink="http://www.w3.org/1999/xlink" viewBox="0 0 67.17 53.59"><defs><style>.cls-1{isolation:isolate;}.cls-10,.cls-100,.cls-101,.cls-102,.cls-103,.cls-104,.cls-105,.cls-106,.cls-107,.cls-108,.cls-109,.cls-11,.cls-110,.cls-111,.cls-112,.cls-113,.cls-114,.cls-115,.cls-116,.cls-117,.cls-12,.cls-120,.cls-121,.cls-122,.cls-123,.cls-124,.cls-125,.cls-126,.cls-127,.cls-128,.cls-13,.cls-130,.cls-131,.cls-132,.cls-134,.cls-14,.cls-15,.cls-16,.cls-17,.cls-18,.cls-19,.cls-2,.cls-20,.cls-21,.cls-22,.cls-23,.cls-24,.cls-25,.cls-26,.cls-27,.cls-28,.cls-29,.cls-3,.cls-30,.cls-31,.cls-32,.cls-33,.cls-34,.cls-35,.cls-36,.cls-37,.cls-38,.cls-39,.cls-4,.cls-40,.cls-41,.cls-42,.cls-43,.cls-44,.cls-45,.cls-46,.cls-47,.cls-48,.cls-49,.cls-5,.cls-50,.cls-51,.cls-52,.cls-53,.cls-54,.cls-55,.cls-56,.cls-57,.cls-58,.cls-59,.cls-6,.cls-60,.cls-61,.cls-62,.cls-63,.cls-64,.cls-65,.cls-66,.cls-67,.cls-68,.cls-69,.cls-7,.cls-70,.cls-71,.cls-72,.cls-73,.cls-74,.cls-75,.cls-76,.cls-77,.cls-78,.cls-79,.cls-8,.cls-80,.cls-81,.cls-82,.cls-83,.cls-84,.cls-85,.cls-86,.cls-87,.cls-88,.cls-89,.cls-9,.cls-90,.cls-91,.cls-92,.cls-93,.cls-94,.cls-95,.cls-96,.cls-97,.cls-98,.cls-99{fill-rule:evenodd;}.cls-2{fill:url(#radial-gradient);}.cls-10,.cls-106,.cls-114,.cls-17,.cls-27,.cls-3,.cls-32,.cls-41,.cls-47,.cls-57,.cls-65,.cls-7,.cls-76,.cls-81,.cls-90,.cls-96{mix-blend-mode:multiply;}.cls-3{fill:url(#radial-gradient-2);}.cls-4{fill:url(#radial-gradient-3);}.cls-5{fill:#5b1500;}.cls-6{fill:url(#radial-gradient-4);}.cls-7{fill:url(#radial-gradient-5);}.cls-8{fill:url(#radial-gradient-6);}.cls-9{fill:url(#linear-gradient);}.cls-10{fill:url(#radial-gradient-7);}.cls-11{fill:url(#linear-gradient-2);}.cls-12{fill:url(#linear-gradient-3);}.cls-13{fill:#fff6b8;}.cls-100,.cls-101,.cls-104,.cls-107,.cls-108,.cls-111,.cls-112,.cls-115,.cls-116,.cls-121,.cls-126,.cls-128,.cls-13,.cls-131,.cls-132,.cls-133,.cls-134,.cls-14,.cls-15,.cls-16,.cls-18,.cls-19,.cls-21,.cls-24,.cls-25,.cls-26,.cls-28,.cls-33,.cls-34,.cls-35,.cls-36,.cls-39,.cls-42,.cls-44,.cls-48,.cls-49,.cls-50,.cls-51,.cls-52,.cls-55,.cls-58,.cls-59,.cls-62,.cls-63,.cls-66,.cls-67,.cls-70,.cls-73,.cls-74,.cls-75,.cls-77,.cls-82,.cls-83,.cls-84,.cls-85,.cls-88,.cls-91,.cls-93,.cls-97,.cls-98,.cls-99{mix-blend-mode:screen;}.cls-14{fill:url(#linear-gradient-4);}.cls-15{fill:url(#linear-gradient-5);}.cls-16{fill:url(#radial-gradient-8);}.cls-17{fill:url(#radial-gradient-9);}.cls-18{fill:url(#New_Gradient_Swatch_94);}.cls-19{fill:url(#New_Gradient_Swatch_94-2);}.cls-20{fill:url(#linear-gradient-6);}.cls-21{fill:url(#New_Gradient_Swatch_94-3);}.cls-22{fill:url(#linear-gradient-7);}.cls-23{fill:url(#linear-gradient-8);}.cls-24{fill:url(#New_Gradient_Swatch_94-4);}.cls-25{fill:url(#New_Gradient_Swatch_94-5);}.cls-26{fill:url(#New_Gradient_Swatch_94-6);}.cls-27{fill:url(#radial-gradient-10);}.cls-28{fill:url(#radial-gradient-11);}.cls-29{fill:url(#linear-gradient-9);}.cls-30{fill:url(#linear-gradient-10);}.cls-31{fill:url(#linear-gradient-11);}.cls-32{fill:url(#radial-gradient-12);}.cls-33{fill:url(#New_Gradient_Swatch_94-7);}.cls-34{fill:url(#radial-gradient-13);}.cls-35{fill:url(#New_Gradient_Swatch_94-8);}.cls-36{fill:url(#New_Gradient_Swatch_94-9);}.cls-37{fill:url(#linear-gradient-12);}.cls-38{fill:url(#linear-gradient-13);}.cls-39{fill:url(#New_Gradient_Swatch_94-10);}.cls-40{fill:url(#linear-gradient-14);}.cls-41{fill:url(#radial-gradient-14);}.cls-42{fill:url(#radial-gradient-15);}.cls-43{fill:url(#linear-gradient-15);}.cls-44{fill:url(#radial-gradient-16);}.cls-45{fill:url(#linear-gradient-16);}.cls-46{fill:url(#linear-gradient-17);}.cls-47{fill:url(#radial-gradient-17);}.cls-48{fill:url(#radial-gradient-18);}.cls-49{fill:url(#radial-gradient-19);}.cls-50{fill:url(#New_Gradient_Swatch_94-11);}.cls-51{fill:url(#New_Gradient_Swatch_94-12);}.cls-52{fill:url(#New_Gradient_Swatch_94-13);}.cls-53{fill:url(#linear-gradient-18);}.cls-54{fill:url(#linear-gradient-19);}.cls-55{fill:url(#New_Gradient_Swatch_94-14);}.cls-56{fill:url(#linear-gradient-20);}.cls-57{fill:url(#radial-gradient-20);}.cls-58{fill:url(#radial-gradient-21);}.cls-59{fill:url(#New_Gradient_Swatch_94-15);}.cls-60{fill:url(#linear-gradient-21);}.cls-61{fill:url(#linear-gradient-22);}.cls-62{fill:url(#New_Gradient_Swatch_94-16);}.cls-63{fill:url(#New_Gradient_Swatch_94-17);}.cls-64{fill:url(#linear-gradient-23);}.cls-65{fill:url(#radial-gradient-22);}.cls-66{fill:url(#New_Gradient_Swatch_94-18);}.cls-67{fill:url(#radial-gradient-23);}.cls-68{fill:url(#linear-gradient-24);}.cls-69{fill:url(#linear-gradient-25);}.cls-70{fill:url(#New_Gradient_Swatch_94-19);}.cls-71{fill:url(#linear-gradient-26);}.cls-72{fill:url(#linear-gradient-27);}.cls-73{fill:url(#New_Gradient_Swatch_94-20);}.cls-74{fill:url(#New_Gradient_Swatch_94-21);}.cls-75{fill:url(#New_Gradient_Swatch_94-22);}.cls-76{fill:url(#radial-gradient-24);}.cls-77{fill:url(#radial-gradient-25);}.cls-78{fill:url(#linear-gradient-28);}.cls-79{fill:url(#linear-gradient-29);}.cls-80{fill:url(#linear-gradient-30);}.cls-81{fill:url(#radial-gradient-26);}.cls-82{fill:url(#New_Gradient_Swatch_94-23);}.cls-83{fill:url(#radial-gradient-27);}.cls-84{fill:url(#New_Gradient_Swatch_94-24);}.cls-85{fill:url(#New_Gradient_Swatch_94-25);}.cls-86{fill:url(#linear-gradient-31);}.cls-87{fill:url(#linear-gradient-32);}.cls-88{fill:url(#New_Gradient_Swatch_94-26);}.cls-89{fill:url(#linear-gradient-33);}.cls-90{fill:url(#radial-gradient-28);}.cls-91{fill:url(#radial-gradient-29);}.cls-92{fill:url(#linear-gradient-34);}.cls-93{fill:url(#radial-gradient-30);}.cls-94{fill:url(#linear-gradient-35);}.cls-95{fill:url(#linear-gradient-36);}.cls-96{fill:url(#radial-gradient-31);}.cls-97{fill:url(#radial-gradient-32);}.cls-98{fill:url(#radial-gradient-33);}.cls-99{fill:url(#New_Gradient_Swatch_94-27);}.cls-100{fill:url(#New_Gradient_Swatch_94-28);}.cls-101{fill:url(#New_Gradient_Swatch_94-29);}.cls-102{fill:url(#linear-gradient-37);}.cls-103{fill:url(#linear-gradient-38);}.cls-104{fill:url(#New_Gradient_Swatch_94-30);}.cls-105{fill:url(#linear-gradient-39);}.cls-106{fill:url(#radial-gradient-34);}.cls-107{fill:url(#radial-gradient-35);}.cls-108{fill:url(#New_Gradient_Swatch_94-31);}.cls-109{fill:url(#linear-gradient-40);}.cls-110{fill:url(#linear-gradient-41);}.cls-111{fill:url(#New_Gradient_Swatch_94-32);}.cls-112{fill:url(#New_Gradient_Swatch_94-33);}.cls-113{fill:url(#linear-gradient-42);}.cls-114{fill:url(#radial-gradient-36);}.cls-115{fill:url(#New_Gradient_Swatch_94-34);}.cls-116{fill:url(#radial-gradient-37);}.cls-117{fill:url(#linear-gradient-43);}.cls-118{fill:#400;}.cls-119{fill:url(#New_Gradient_Swatch_99);}.cls-120{fill:url(#New_Gradient_Swatch_106);}.cls-121{fill:url(#New_Gradient_Swatch_103);}.cls-122{fill:url(#radial-gradient-38);}.cls-123{fill:url(#radial-gradient-39);}.cls-124{fill:url(#radial-gradient-40);}.cls-125{fill:#fff;opacity:0.75;}.cls-126{fill:url(#radial-gradient-41);}.cls-127{fill:url(#radial-gradient-42);}.cls-128{fill:url(#radial-gradient-43);}.cls-129{fill:url(#radial-gradient-44);}.cls-130{fill:url(#radial-gradient-45);}.cls-131{fill:url(#radial-gradient-46);}.cls-132{fill:url(#radial-gradient-47);}.cls-133{fill:url(#radial-gradient-48);}.cls-134{fill:url(#radial-gradient-49);}</style><radialGradient id="radial-gradient" cx="23.31" cy="40.32" r="18.51" gradientUnits="userSpaceOnUse"><stop offset="0" stop-color="#7d0000"/><stop offset="1" stop-color="red"/></radialGradient><radialGradient id="radial-gradient-2" cx="26.93" cy="27.93" r="24.8" gradientUnits="userSpaceOnUse"><stop offset="0.71" stop-color="#900"/><stop offset="0.75" stop-color="#9b0404"/><stop offset="0.78" stop-color="#9f1010"/><stop offset="0.82" stop-color="#a82424"/><stop offset="0.86" stop-color="#b34141"/><stop offset="0.89" stop-color="#c26666"/><stop offset="0.93" stop-color="#d49393"/><stop offset="0.97" stop-color="#e8c7c7"/><stop offset="1" stop-color="#fff"/></radialGradient><radialGradient id="radial-gradient-3" cx="18.04" cy="43.01" r="12.33" gradientUnits="userSpaceOnUse"><stop offset="0" stop-color="#e8aa00"/><stop offset="1" stop-color="#fff8b0"/></radialGradient><radialGradient id="radial-gradient-4" cx="36.35" cy="40.32" r="18.51" gradientTransform="matrix(-1, 0, 0, 1, 80.2, 0)" xlink:href="#radial-gradient"/><radialGradient id="radial-gradient-5" cx="39.96" cy="27.93" r="24.8" gradientTransform="matrix(-1, 0, 0, 1, 80.2, 0)" xlink:href="#radial-gradient-2"/><radialGradient id="radial-gradient-6" cx="31.07" cy="43.01" r="12.33" gradientTransform="matrix(-1, 0, 0, 1, 80.2, 0)" xlink:href="#radial-gradient-3"/><linearGradient id="linear-gradient" x1="33.59" y1="47.83" x2="33.59" y2="4.93" gradientUnits="userSpaceOnUse"><stop offset="0" stop-color="#ed8200"/><stop offset="1" stop-color="#fa0"/></linearGradient><radialGradient id="radial-gradient-7" cx="33.73" cy="21.99" r="40.52" gradientUnits="userSpaceOnUse"><stop offset="0" stop-color="#fff"/><stop offset="1" stop-color="#e3a539"/></radialGradient><linearGradient id="linear-gradient-2" x1="33.59" y1="49.85" x2="33.59" y2="2.91" gradientUnits="userSpaceOnUse"><stop offset="0" stop-color="#f0a324"/><stop offset="1" stop-color="#995e00"/></linearGradient><linearGradient id="linear-gradient-3" x1="33.59" y1="49.85" x2="33.59" y2="2.91" gradientUnits="userSpaceOnUse"><stop offset="0" stop-color="#b56700"/><stop offset="1" stop-color="#ffd97a"/></linearGradient><linearGradient id="linear-gradient-4" x1="33.59" y1="49.85" x2="33.59" y2="26.38" gradientUnits="userSpaceOnUse"><stop offset="0" stop-color="#d1a14d"/><stop offset="1"/></linearGradient><linearGradient id="linear-gradient-5" x1="33.59" y1="26.38" x2="33.59" gradientUnits="userSpaceOnUse"><stop offset="0"/><stop offset="1" stop-color="#d1a14d"/></linearGradient><radialGradient id="radial-gradient-8" cx="33.59" cy="46.95" r="24.62" gradientUnits="userSpaceOnUse"><stop offset="0" stop-color="#ffd58c"/><stop offset="1" stop-color="#d1a14d"/></radialGradient><radialGradient id="radial-gradient-9" cx="33.59" cy="13.36" r="22.27" gradientUnits="userSpaceOnUse"><stop offset="0" stop-color="#fff"/><stop offset="0.11" stop-color="#f8e7cb"/><stop offset="0.21" stop-color="#f1d39f"/><stop offset="0.32" stop-color="#ecc27a"/><stop offset="0.43" stop-color="#e8b65d"/><stop offset="0.54" stop-color="#e5ac49"/><stop offset="0.64" stop-color="#e4a73d"/><stop offset="0.75" stop-color="#e3a539"/></radialGradient><radialGradient id="New_Gradient_Swatch_94" cx="35.14" cy="-11.36" r="43.92" gradientUnits="userSpaceOnUse"><stop offset="0" stop-color="#ffd58c"/><stop offset="0" stop-color="#ffef8f"/><stop offset="1"/></radialGradient><radialGradient id="New_Gradient_Swatch_94-2" cx="33.38" cy="-9.66" r="29.17" xlink:href="#New_Gradient_Swatch_94"/><linearGradient id="linear-gradient-6" x1="11.96" y1="42.15" x2="11.96" y2="13.13" xlink:href="#linear-gradient-3"/><radialGradient id="New_Gradient_Swatch_94-3" cx="5.01" cy="15.75" r="28.73" xlink:href="#New_Gradient_Swatch_94"/><linearGradient id="linear-gradient-7" x1="3.27" y1="28.75" x2="3.27" y2="21.26" gradientUnits="userSpaceOnUse"><stop offset="0" stop-color="#eb9e21"/><stop offset="1" stop-color="#ffdb59"/></linearGradient><linearGradient id="linear-gradient-8" y1="25.01" x2="6.28" y2="25.01" gradientUnits="userSpaceOnUse"><stop offset="0" stop-color="#ffb438"/><stop offset="1" stop-color="#c77a00"/></linearGradient><radialGradient id="New_Gradient_Swatch_94-4" cx="-0.72" cy="21.31" r="4.53" xlink:href="#New_Gradient_Swatch_94"/><radialGradient id="New_Gradient_Swatch_94-5" cx="2.25" cy="21.66" r="4.29" xlink:href="#New_Gradient_Swatch_94"/><radialGradient id="New_Gradient_Swatch_94-6" cx="3.73" cy="22.66" r="4.47" xlink:href="#New_Gradient_Swatch_94"/><radialGradient id="radial-gradient-10" cx="2.46" cy="22.58" r="10.56" gradientUnits="userSpaceOnUse"><stop offset="0.44" stop-color="#fff"/><stop offset="1" stop-color="#cfa04d"/></radialGradient><radialGradient id="radial-gradient-11" cx="1.01" cy="25" r="3.91" gradientUnits="userSpaceOnUse"><stop offset="0" stop-color="#ffbe4d"/><stop offset="0" stop-color="#ffef8f"/><stop offset="1"/></radialGradient><linearGradient id="linear-gradient-9" x1="6.53" y1="29.1" x2="-0.32" y2="21.68" gradientUnits="userSpaceOnUse"><stop offset="0" stop-color="#f7a334"/><stop offset="1" stop-color="#fff39c"/></linearGradient><linearGradient id="linear-gradient-10" x1="10.11" y1="31.65" x2="10.11" y2="23.3" xlink:href="#linear-gradient-7"/><linearGradient id="linear-gradient-11" x1="8.94" y1="27.48" x2="12.7" y2="27.48" xlink:href="#linear-gradient-8"/><radialGradient id="radial-gradient-12" cx="10.45" cy="27.62" r="4.49" xlink:href="#radial-gradient-10"/><radialGradient id="New_Gradient_Swatch_94-7" cx="10.11" cy="24.16" r="3.55" xlink:href="#New_Gradient_Swatch_94"/><radialGradient id="radial-gradient-13" cx="12.41" cy="24.99" r="5.27" xlink:href="#radial-gradient-11"/><radialGradient id="New_Gradient_Swatch_94-8" cx="12.45" cy="21.89" r="5.18" xlink:href="#New_Gradient_Swatch_94"/><radialGradient id="New_Gradient_Swatch_94-9" cx="9.12" cy="26.46" r="3.64" xlink:href="#New_Gradient_Swatch_94"/><linearGradient id="linear-gradient-12" x1="10.65" y1="31.85" x2="10.32" y2="22.74" xlink:href="#linear-gradient-9"/><linearGradient id="linear-gradient-13" x1="4.2" y1="20.32" x2="4.2" y2="12.61" xlink:href="#linear-gradient-7"/><radialGradient id="New_Gradient_Swatch_94-10" cx="2.08" cy="13.57" r="4.73" xlink:href="#New_Gradient_Swatch_94"/><linearGradient id="linear-gradient-14" x1="3.1" y1="16.47" x2="6.58" y2="16.47" xlink:href="#linear-gradient-8"/><radialGradient id="radial-gradient-14" cx="3.41" cy="16.66" r="4.42" xlink:href="#radial-gradient-10"/><radialGradient id="radial-gradient-15" cx="3.67" cy="13.68" r="4.39" xlink:href="#radial-gradient-11"/><linearGradient id="linear-gradient-15" x1="5.65" y1="21.76" x2="2.69" y2="12.89" gradientUnits="userSpaceOnUse"><stop offset="0" stop-color="#f2ae55"/><stop offset="1" stop-color="#ffef7a"/></linearGradient><radialGradient id="radial-gradient-16" cx="4.97" cy="14.28" r="3.23" xlink:href="#radial-gradient-11"/><linearGradient id="linear-gradient-16" x1="9.75" y1="15.17" x2="9.75" y2="8.6" xlink:href="#linear-gradient-7"/><linearGradient id="linear-gradient-17" x1="6.75" y1="11.84" x2="12.74" y2="11.84" xlink:href="#linear-gradient-8"/><radialGradient id="radial-gradient-17" cx="9.15" cy="12.89" r="2.34" xlink:href="#radial-gradient-10"/><radialGradient id="radial-gradient-18" cx="10.59" cy="10.6" r="2.08" xlink:href="#radial-gradient-11"/><radialGradient id="radial-gradient-19" cx="5.76" cy="14.02" r="3.6" xlink:href="#radial-gradient-11"/><radialGradient id="New_Gradient_Swatch_94-11" cx="11.53" cy="10.1" r="4.92" xlink:href="#New_Gradient_Swatch_94"/><radialGradient id="New_Gradient_Swatch_94-12" cx="11.5" cy="8.07" r="3.65" xlink:href="#New_Gradient_Swatch_94"/><radialGradient id="New_Gradient_Swatch_94-13" cx="10.8" cy="11.68" r="4.11" xlink:href="#New_Gradient_Swatch_94"/><linearGradient id="linear-gradient-18" x1="7.21" y1="14.67" x2="12.34" y2="8.38" gradientUnits="userSpaceOnUse"><stop offset="0" stop-color="#ffcb5a"/><stop offset="1" stop-color="#ffef7a"/></linearGradient><linearGradient id="linear-gradient-19" x1="9.16" y1="23.96" x2="9.16" y2="16.61" xlink:href="#linear-gradient-7"/><radialGradient id="New_Gradient_Swatch_94-14" cx="12.48" cy="21.88" r="4.47" xlink:href="#New_Gradient_Swatch_94"/><linearGradient id="linear-gradient-20" x1="5.74" y1="23.28" x2="11.62" y2="16.38" xlink:href="#linear-gradient-8"/><radialGradient id="radial-gradient-20" cx="8.28" cy="21.24" r="2.38" xlink:href="#radial-gradient-10"/><radialGradient id="radial-gradient-21" cx="9.04" cy="15.6" r="5.34" xlink:href="#radial-gradient-11"/><radialGradient id="New_Gradient_Swatch_94-15" cx="10.9" cy="16.33" r="3.71" xlink:href="#New_Gradient_Swatch_94"/><linearGradient id="linear-gradient-21" x1="7.06" y1="24.19" x2="11.8" y2="17.1" gradientUnits="userSpaceOnUse"><stop offset="0" stop-color="#f28f0f"/><stop offset="1" stop-color="#ffef7a"/></linearGradient><linearGradient id="linear-gradient-22" x1="5.69" y1="36.37" x2="5.69" y2="30.8" xlink:href="#linear-gradient-7"/><radialGradient id="New_Gradient_Swatch_94-16" cx="3.42" cy="30.49" r="3.09" xlink:href="#New_Gradient_Swatch_94"/><radialGradient id="New_Gradient_Swatch_94-17" cx="5.3" cy="30.53" r="3.1" xlink:href="#New_Gradient_Swatch_94"/><linearGradient id="linear-gradient-23" x1="1.43" y1="33.67" x2="9.95" y2="33.67" xlink:href="#linear-gradient-8"/><radialGradient id="radial-gradient-22" cx="6.07" cy="32.65" r="5.28" xlink:href="#radial-gradient-10"/><radialGradient id="New_Gradient_Swatch_94-18" cx="1.82" cy="29.28" r="4.55" xlink:href="#New_Gradient_Swatch_94"/><radialGradient id="radial-gradient-23" cx="2.87" cy="31.38" r="4.91" xlink:href="#radial-gradient-11"/><linearGradient id="linear-gradient-24" x1="9.79" y1="35.73" x2="1.2" y2="31.05" gradientUnits="userSpaceOnUse"><stop offset="0" stop-color="#d18a2c"/><stop offset="1" stop-color="#fff39c"/></linearGradient><linearGradient id="linear-gradient-25" x1="161.06" y1="42.15" x2="161.06" y2="13.13" gradientTransform="matrix(-1, 0, 0, 1, 216.27, 0)" xlink:href="#linear-gradient-3"/><radialGradient id="New_Gradient_Swatch_94-19" cx="154.11" cy="15.75" r="28.73" gradientTransform="matrix(-1, 0, 0, 1, 216.27, 0)" xlink:href="#New_Gradient_Swatch_94"/><linearGradient id="linear-gradient-26" x1="152.36" y1="28.75" x2="152.36" y2="21.26" gradientTransform="matrix(-1, 0, 0, 1, 216.27, 0)" xlink:href="#linear-gradient-7"/><linearGradient id="linear-gradient-27" x1="149.1" y1="25.01" x2="155.38" y2="25.01" gradientTransform="matrix(-1, 0, 0, 1, 216.27, 0)" xlink:href="#linear-gradient-8"/><radialGradient id="New_Gradient_Swatch_94-20" cx="148.38" cy="21.31" r="4.53" gradientTransform="matrix(-1, 0, 0, 1, 216.27, 0)" xlink:href="#New_Gradient_Swatch_94"/><radialGradient id="New_Gradient_Swatch_94-21" cx="151.35" cy="21.66" r="4.29" gradientTransform="matrix(-1, 0, 0, 1, 216.27, 0)" xlink:href="#New_Gradient_Swatch_94"/><radialGradient id="New_Gradient_Swatch_94-22" cx="152.83" cy="22.66" r="4.47" gradientTransform="matrix(-1, 0, 0, 1, 216.27, 0)" xlink:href="#New_Gradient_Swatch_94"/><radialGradient id="radial-gradient-24" cx="151.56" cy="22.58" r="10.56" gradientTransform="matrix(-1, 0, 0, 1, 216.27, 0)" xlink:href="#radial-gradient-10"/><radialGradient id="radial-gradient-25" cx="150.11" cy="25" r="3.91" gradientTransform="matrix(-1, 0, 0, 1, 216.27, 0)" xlink:href="#radial-gradient-11"/><linearGradient id="linear-gradient-28" x1="155.62" y1="29.1" x2="148.78" y2="21.68" gradientTransform="matrix(-1, 0, 0, 1, 216.27, 0)" xlink:href="#linear-gradient-9"/><linearGradient id="linear-gradient-29" x1="159.21" y1="31.65" x2="159.21" y2="23.3" gradientTransform="matrix(-1, 0, 0, 1, 216.27, 0)" xlink:href="#linear-gradient-7"/><linearGradient id="linear-gradient-30" x1="158.04" y1="27.48" x2="161.8" y2="27.48" gradientTransform="matrix(-1, 0, 0, 1, 216.27, 0)" xlink:href="#linear-gradient-8"/><radialGradient id="radial-gradient-26" cx="159.55" cy="27.62" r="4.49" gradientTransform="matrix(-1, 0, 0, 1, 216.27, 0)" xlink:href="#radial-gradient-10"/><radialGradient id="New_Gradient_Swatch_94-23" cx="159.21" cy="24.16" r="3.55" gradientTransform="matrix(-1, 0, 0, 1, 216.27, 0)" xlink:href="#New_Gradient_Swatch_94"/><radialGradient id="radial-gradient-27" cx="161.51" cy="24.99" r="5.27" gradientTransform="matrix(-1, 0, 0, 1, 216.27, 0)" xlink:href="#radial-gradient-11"/><radialGradient id="New_Gradient_Swatch_94-24" cx="161.55" cy="21.89" r="5.18" gradientTransform="matrix(-1, 0, 0, 1, 216.27, 0)" xlink:href="#New_Gradient_Swatch_94"/><radialGradient id="New_Gradient_Swatch_94-25" cx="158.22" cy="26.46" r="3.64" gradientTransform="matrix(-1, 0, 0, 1, 216.27, 0)" xlink:href="#New_Gradient_Swatch_94"/><linearGradient id="linear-gradient-31" x1="159.75" y1="31.85" x2="159.41" y2="22.74" gradientTransform="matrix(-1, 0, 0, 1, 216.27, 0)" xlink:href="#linear-gradient-9"/><linearGradient id="linear-gradient-32" x1="153.29" y1="20.32" x2="153.29" y2="12.61" gradientTransform="matrix(-1, 0, 0, 1, 216.27, 0)" xlink:href="#linear-gradient-7"/><radialGradient id="New_Gradient_Swatch_94-26" cx="151.18" cy="13.57" r="4.73" gradientTransform="matrix(-1, 0, 0, 1, 216.27, 0)" xlink:href="#New_Gradient_Swatch_94"/><linearGradient id="linear-gradient-33" x1="152.19" y1="16.47" x2="155.68" y2="16.47" gradientTransform="matrix(-1, 0, 0, 1, 216.27, 0)" xlink:href="#linear-gradient-8"/><radialGradient id="radial-gradient-28" cx="152.51" cy="16.66" r="4.42" gradientTransform="matrix(-1, 0, 0, 1, 216.27, 0)" xlink:href="#radial-gradient-10"/><radialGradient id="radial-gradient-29" cx="152.77" cy="13.68" r="4.39" gradientTransform="matrix(-1, 0, 0, 1, 216.27, 0)" xlink:href="#radial-gradient-11"/><linearGradient id="linear-gradient-34" x1="154.75" y1="21.76" x2="151.79" y2="12.89" gradientTransform="matrix(-1, 0, 0, 1, 216.27, 0)" xlink:href="#linear-gradient-15"/><radialGradient id="radial-gradient-30" cx="154.07" cy="14.28" r="3.23" gradientTransform="matrix(-1, 0, 0, 1, 216.27, 0)" xlink:href="#radial-gradient-11"/><linearGradient id="linear-gradient-35" x1="158.84" y1="15.17" x2="158.84" y2="8.6" gradientTransform="matrix(-1, 0, 0, 1, 216.27, 0)" xlink:href="#linear-gradient-7"/><linearGradient id="linear-gradient-36" x1="155.85" y1="11.84" x2="161.84" y2="11.84" gradientTransform="matrix(-1, 0, 0, 1, 216.27, 0)" xlink:href="#linear-gradient-8"/><radialGradient id="radial-gradient-31" cx="158.25" cy="12.89" r="2.34" gradientTransform="matrix(-1, 0, 0, 1, 216.27, 0)" xlink:href="#radial-gradient-10"/><radialGradient id="radial-gradient-32" cx="159.69" cy="10.6" r="2.08" gradientTransform="matrix(-1, 0, 0, 1, 216.27, 0)" xlink:href="#radial-gradient-11"/><radialGradient id="radial-gradient-33" cx="154.86" cy="14.02" r="3.6" gradientTransform="matrix(-1, 0, 0, 1, 216.27, 0)" xlink:href="#radial-gradient-11"/><radialGradient id="New_Gradient_Swatch_94-27" cx="160.63" cy="10.1" r="4.92" gradientTransform="matrix(-1, 0, 0, 1, 216.27, 0)" xlink:href="#New_Gradient_Swatch_94"/><radialGradient id="New_Gradient_Swatch_94-28" cx="160.6" cy="8.07" r="3.65" gradientTransform="matrix(-1, 0, 0, 1, 216.27, 0)" xlink:href="#New_Gradient_Swatch_94"/><radialGradient id="New_Gradient_Swatch_94-29" cx="159.9" cy="11.68" r="4.11" gradientTransform="matrix(-1, 0, 0, 1, 216.27, 0)" xlink:href="#New_Gradient_Swatch_94"/><linearGradient id="linear-gradient-37" x1="156.3" y1="14.67" x2="161.44" y2="8.38" gradientTransform="matrix(-1, 0, 0, 1, 216.27, 0)" xlink:href="#linear-gradient-18"/><linearGradient id="linear-gradient-38" x1="158.26" y1="23.96" x2="158.26" y2="16.61" gradientTransform="matrix(-1, 0, 0, 1, 216.27, 0)" xlink:href="#linear-gradient-7"/><radialGradient id="New_Gradient_Swatch_94-30" cx="161.58" cy="21.88" r="4.47" gradientTransform="matrix(-1, 0, 0, 1, 216.27, 0)" xlink:href="#New_Gradient_Swatch_94"/><linearGradient id="linear-gradient-39" x1="154.84" y1="23.28" x2="160.72" y2="16.38" gradientTransform="matrix(-1, 0, 0, 1, 216.27, 0)" xlink:href="#linear-gradient-8"/><radialGradient id="radial-gradient-34" cx="157.38" cy="21.24" r="2.38" gradientTransform="matrix(-1, 0, 0, 1, 216.27, 0)" xlink:href="#radial-gradient-10"/><radialGradient id="radial-gradient-35" cx="158.14" cy="15.6" r="5.34" gradientTransform="matrix(-1, 0, 0, 1, 216.27, 0)" xlink:href="#radial-gradient-11"/><radialGradient id="New_Gradient_Swatch_94-31" cx="160" cy="16.33" r="3.71" gradientTransform="matrix(-1, 0, 0, 1, 216.27, 0)" xlink:href="#New_Gradient_Swatch_94"/><linearGradient id="linear-gradient-40" x1="156.16" y1="24.19" x2="160.9" y2="17.1" gradientTransform="matrix(-1, 0, 0, 1, 216.27, 0)" xlink:href="#linear-gradient-21"/><linearGradient id="linear-gradient-41" x1="154.79" y1="36.37" x2="154.79" y2="30.8" gradientTransform="matrix(-1, 0, 0, 1, 216.27, 0)" xlink:href="#linear-gradient-7"/><radialGradient id="New_Gradient_Swatch_94-32" cx="152.52" cy="30.49" r="3.09" gradientTransform="matrix(-1, 0, 0, 1, 216.27, 0)" xlink:href="#New_Gradient_Swatch_94"/><radialGradient id="New_Gradient_Swatch_94-33" cx="154.4" cy="30.53" r="3.1" gradientTransform="matrix(-1, 0, 0, 1, 216.27, 0)" xlink:href="#New_Gradient_Swatch_94"/><linearGradient id="linear-gradient-42" x1="150.52" y1="33.67" x2="159.05" y2="33.67" gradientTransform="matrix(-1, 0, 0, 1, 216.27, 0)" xlink:href="#linear-gradient-8"/><radialGradient id="radial-gradient-36" cx="155.17" cy="32.65" r="5.28" gradientTransform="matrix(-1, 0, 0, 1, 216.27, 0)" xlink:href="#radial-gradient-10"/><radialGradient id="New_Gradient_Swatch_94-34" cx="150.92" cy="29.28" r="4.55" gradientTransform="matrix(-1, 0, 0, 1, 216.27, 0)" xlink:href="#New_Gradient_Swatch_94"/><radialGradient id="radial-gradient-37" cx="151.97" cy="31.38" r="4.91" gradientTransform="matrix(-1, 0, 0, 1, 216.27, 0)" xlink:href="#radial-gradient-11"/><linearGradient id="linear-gradient-43" x1="158.89" y1="35.73" x2="150.3" y2="31.05" gradientTransform="matrix(-1, 0, 0, 1, 216.27, 0)" xlink:href="#linear-gradient-24"/><linearGradient id="New_Gradient_Swatch_99" x1="33.39" y1="32.71" x2="33.39" y2="13.2" gradientUnits="userSpaceOnUse"><stop offset="0" stop-color="#7a0a00"/><stop offset="0.71" stop-color="#d90000"/><stop offset="0.82" stop-color="#ec200b"/><stop offset="0.93" stop-color="#fa3814"/><stop offset="1" stop-color="#ff4117"/></linearGradient><linearGradient id="New_Gradient_Swatch_106" x1="33.39" y1="32.29" x2="33.39" y2="13.62" gradientUnits="userSpaceOnUse"><stop offset="0" stop-color="#ff6000"/><stop offset="0.41" stop-color="#ffb812"/><stop offset="1" stop-color="#fff2b0"/></linearGradient><linearGradient id="New_Gradient_Swatch_103" x1="33.41" y1="23.16" x2="33.41" y2="13.62" gradientUnits="userSpaceOnUse"><stop offset="0" stop-color="#7a200b"/><stop offset="1" stop-color="#ffb829"/></linearGradient><radialGradient id="radial-gradient-38" cx="0.27" cy="-4.69" r="71.19" gradientTransform="matrix(-1, 0, 0, 1, 4.09, 0)" gradientUnits="userSpaceOnUse"><stop offset="0" stop-color="#ed3b00"/><stop offset="0.77" stop-color="#d90000"/><stop offset="0.95" stop-color="#ff2632"/><stop offset="0.96" stop-color="#fb2530"/><stop offset="0.97" stop-color="#ee212b"/><stop offset="0.98" stop-color="#d91b23"/><stop offset="0.99" stop-color="#bb1218"/><stop offset="0.99" stop-color="#96070a"/><stop offset="1" stop-color="#7d0000"/></radialGradient><radialGradient id="radial-gradient-39" cx="63.35" cy="-4.69" r="71.19" gradientTransform="matrix(1, 0, 0, 1, 0, 0)" xlink:href="#radial-gradient-38"/><radialGradient id="radial-gradient-40" cx="59.65" cy="-0.49" r="65.31" gradientUnits="userSpaceOnUse"><stop offset="0" stop-color="#ffea73"/><stop offset="0.35" stop-color="#ffea71"/><stop offset="0.47" stop-color="#ffe96a"/><stop offset="0.56" stop-color="#ffe75f"/><stop offset="0.63" stop-color="#ffe54e"/><stop offset="0.69" stop-color="#ffe138"/><stop offset="0.75" stop-color="#ffdd1d"/><stop offset="0.77" stop-color="#ffdb0d"/><stop offset="0.94" stop-color="#fff6ab"/><stop offset="0.95" stop-color="#fef3a7"/><stop offset="0.96" stop-color="#f9ea9a"/><stop offset="0.97" stop-color="#f3da85"/><stop offset="0.98" stop-color="#e9c567"/><stop offset="0.99" stop-color="#dca941"/><stop offset="1" stop-color="#cd8813"/><stop offset="1" stop-color="#c77a00"/></radialGradient><radialGradient id="radial-gradient-41" cx="7.73" cy="34.97" r="19.64" gradientUnits="userSpaceOnUse"><stop offset="0" stop-color="#ffd58c"/><stop offset="0" stop-color="#ff8f8f"/><stop offset="1"/></radialGradient><radialGradient id="radial-gradient-42" cx="-3.42" cy="-0.49" r="65.31" gradientTransform="matrix(-1, 0, 0, 1, 4.09, 0)" xlink:href="#radial-gradient-40"/><radialGradient id="radial-gradient-43" cx="-55.35" cy="34.97" r="19.64" gradientTransform="matrix(-1, 0, 0, 1, 4.09, 0)" xlink:href="#radial-gradient-41"/><radialGradient id="radial-gradient-44" cx="33.65" cy="112.08" r="77.75" gradientUnits="userSpaceOnUse"><stop offset="0.93" stop-color="#a85400"/><stop offset="0.94" stop-color="#b66f1d"/><stop offset="0.95" stop-color="#cc994b"/><stop offset="0.96" stop-color="#debb71"/><stop offset="0.97" stop-color="#edd68f"/><stop offset="0.98" stop-color="#f7eaa4"/><stop offset="0.99" stop-color="#fdf5b1"/><stop offset="1" stop-color="#fff9b5"/></radialGradient><radialGradient id="radial-gradient-45" cx="33.59" cy="96.65" r="62.27" gradientUnits="userSpaceOnUse"><stop offset="0.9" stop-color="#c77a00"/><stop offset="0.91" stop-color="#d79600"/><stop offset="0.94" stop-color="#e9b300"/><stop offset="0.96" stop-color="#f5c800"/><stop offset="0.98" stop-color="#fcd500"/><stop offset="1" stop-color="#ffd900"/></radialGradient><radialGradient id="radial-gradient-46" cx="33.44" cy="99.8" r="62.87" gradientUnits="userSpaceOnUse"><stop offset="0.91"/><stop offset="0.93" stop-color="#020202"/><stop offset="0.95" stop-color="#0b0a07"/><stop offset="0.96" stop-color="#191811"/><stop offset="0.96" stop-color="#2d2b1e"/><stop offset="0.97" stop-color="#474430"/><stop offset="0.98" stop-color="#676345"/><stop offset="0.99" stop-color="#8d885e"/><stop offset="0.99" stop-color="#b9b27c"/><stop offset="1" stop-color="#eae19d"/><stop offset="1" stop-color="#fff6ab"/></radialGradient><radialGradient id="radial-gradient-47" cx="22.47" cy="37.87" r="2.31" gradientUnits="userSpaceOnUse"><stop offset="0" stop-color="#ffd400"/><stop offset="0.23" stop-color="#f39200"/><stop offset="0.26" stop-color="#e68a00"/><stop offset="0.38" stop-color="#a60"/><stop offset="0.49" stop-color="#764700"/><stop offset="0.61" stop-color="#4c2d00"/><stop offset="0.71" stop-color="#2b1a00"/><stop offset="0.82" stop-color="#130b00"/><stop offset="0.92" stop-color="#050300"/><stop offset="1"/></radialGradient><radialGradient id="radial-gradient-48" cx="34.74" cy="38.29" r="1.65" gradientUnits="userSpaceOnUse"><stop offset="0" stop-color="#ffd400"/><stop offset="0.02" stop-color="#fdcb00"/><stop offset="0.09" stop-color="#f8ac00"/><stop offset="0.15" stop-color="#f49900"/><stop offset="0.19" stop-color="#f39200"/><stop offset="0.2" stop-color="#ea8d00"/><stop offset="0.29" stop-color="#b46c00"/><stop offset="0.39" stop-color="#844f00"/><stop offset="0.48" stop-color="#5b3700"/><stop offset="0.58" stop-color="#3a2300"/><stop offset="0.67" stop-color="#211400"/><stop offset="0.77" stop-color="#0e0900"/><stop offset="0.88" stop-color="#040200"/><stop offset="1"/></radialGradient><radialGradient id="radial-gradient-49" cx="41.54" cy="37.43" r="1.65" xlink:href="#radial-gradient-48"/></defs><g class="cls-1"><g id="Layer_2" data-name="Layer 2"><g id="Layer_1-2" data-name="Layer 1"><path class="cls-2" d="M5.19,44.19c1.12-.13,8.34-1.19,8.34-2.9a.86.86,0,0,0-.33-.62,21.26,21.26,0,0,1,7.24,7.09,1.69,1.69,0,0,1,.29,1.43,1.84,1.84,0,0,1-.9,1,33.23,33.23,0,0,1-9.25,3.38,17.09,17.09,0,0,1-.38-5.49,10.35,10.35,0,0,1-5-3.91Z"/><path class="cls-3" d="M13.53,41.29c0,1.09-2.94,1.92-5.36,2.4a23.61,23.61,0,0,0,4.17,3.93,22,22,0,0,0,6.2,3.29c.44-.22.87-.45,1.29-.7a1.84,1.84,0,0,0,.9-1,1.69,1.69,0,0,0-.29-1.43,21.26,21.26,0,0,0-7.24-7.09.86.86,0,0,1,.33.62Z"/><path class="cls-4" d="M19.42,47.76c-.44,1.7-6.68,3.38-9.16,4,0,.31.08.62.14.93,2.24-.53,9.16-2.37,9.67-4.19a1.61,1.61,0,0,0-.29-1.36l-.66-.64a1.5,1.5,0,0,1,.3,1.29ZM6.57,45.83c2-.32,8.17-1.49,8.27-3.1a1,1,0,0,0-.33-.77l-.65-.65a.92.92,0,0,1,.32.7c0,1.67-6.83,2.8-8.36,3a9.71,9.71,0,0,0,.75.81Z"/><path class="cls-5" d="M16.62,48c.95.64,4.4-.51,4.11,1.23a1.69,1.69,0,0,0-.29-1.43,30.76,30.76,0,0,0-8.59-8.65.86.86,0,0,1,.33.63c0,.7-1.17,1.26-2.63,1.69A30.93,30.93,0,0,0,16.62,48Z"/><path class="cls-6" d="M62,44.19c-1.12-.13-8.34-1.19-8.34-2.9a.89.89,0,0,1,.33-.62,21.35,21.35,0,0,0-7.24,7.09,1.69,1.69,0,0,0-.29,1.43,1.84,1.84,0,0,0,.9,1,33.23,33.23,0,0,0,9.25,3.38A17.09,17.09,0,0,0,57,48.1a10.35,10.35,0,0,0,5-3.91Z"/><path class="cls-7" d="M53.64,41.29c0,1.09,2.94,1.92,5.36,2.4a23.26,23.26,0,0,1-4.17,3.93,22,22,0,0,1-6.2,3.29c-.44-.22-.87-.45-1.29-.7a1.84,1.84,0,0,1-.9-1,1.69,1.69,0,0,1,.29-1.43A21.35,21.35,0,0,1,54,40.67a.89.89,0,0,0-.33.62Z"/><path class="cls-8" d="M47.75,47.76c.44,1.7,6.68,3.38,9.16,4,0,.31-.08.62-.14.93-2.24-.53-9.16-2.37-9.67-4.19a1.61,1.61,0,0,1,.29-1.36l.66-.64a1.5,1.5,0,0,0-.3,1.29ZM60.6,45.83c-2-.32-8.17-1.49-8.27-3.1a1,1,0,0,1,.33-.77l.66-.65A.9.9,0,0,0,53,42c0,1.67,6.83,2.8,8.36,3a9.71,9.71,0,0,1-.75.81Z"/><path class="cls-5" d="M50.55,48c-.95.64-4.4-.51-4.11,1.23a1.69,1.69,0,0,1,.29-1.43,30.76,30.76,0,0,1,8.59-8.65.86.86,0,0,0-.33.63c0,.7,1.17,1.26,2.63,1.69A30.72,30.72,0,0,1,50.55,48Z"/><path class="cls-9" d="M33.59,4.93A21.45,21.45,0,1,1,12.14,26.38,21.46,21.46,0,0,1,33.59,4.93Z"/><path class="cls-10" d="M33.59,40A18.39,18.39,0,0,0,50.46,14.29a20.84,20.84,0,1,1-33.75,0A18.39,18.39,0,0,0,33.59,40Z"/><path class="cls-11" d="M33.59,5.83A20.56,20.56,0,1,1,13,26.38,20.55,20.55,0,0,1,33.59,5.83ZM57.05,26.38A23.47,23.47,0,1,0,33.59,49.85,23.46,23.46,0,0,0,57.05,26.38Z"/><path class="cls-12" d="M33.59,49.85A23.47,23.47,0,1,0,10.12,26.38,23.46,23.46,0,0,0,33.59,49.85ZM60,26.38A26.39,26.39,0,1,1,33.59,0,26.39,26.39,0,0,1,60,26.38Z"/><path class="cls-13" d="M33.59,49.85A23.39,23.39,0,0,1,17.4,43.38,22.55,22.55,0,0,0,41,49a1,1,0,0,0,1.33.41A1,1,0,0,0,43,48.13a23.11,23.11,0,0,0,6.75-4.75,23.39,23.39,0,0,1-16.18,6.47Z"/><path class="cls-14" d="M33.59,46.94A20.56,20.56,0,0,1,13,26.38a9.68,9.68,0,0,1-2.91,0,23.47,23.47,0,1,0,46.93,0,9.1,9.1,0,0,1-1.45.11,9.24,9.24,0,0,1-1.46-.11A20.56,20.56,0,0,1,33.59,46.94Z"/><path class="cls-15" d="M10.12,26.38a23.47,23.47,0,1,1,46.93,0,10.71,10.71,0,0,1,2.92,0,26.39,26.39,0,0,0-52.77,0,10.71,10.71,0,0,1,2.92,0Z"/><path class="cls-13" d="M33.59,2.91A23.4,23.4,0,0,1,49.77,9.39a22.56,22.56,0,0,0-24.59-5.2,1.75,1.75,0,0,0-2.28-.53,1.73,1.73,0,0,0-1,2.16c-.44.27-.86.55-1.28.84a.91.91,0,0,0-1.41,1.07A23.7,23.7,0,0,0,17.4,9.39,23.4,23.4,0,0,1,33.59,2.91Z"/><path class="cls-16" d="M33.59,46.94A20.56,20.56,0,0,1,13,26.38c0,11.85,9.2,21.45,20.56,21.45s20.55-9.6,20.55-21.45A20.56,20.56,0,0,1,33.59,46.94Z"/><path class="cls-17" d="M33.59,6.92c9.37,0,17.29,5.9,19.81,14a20.57,20.57,0,0,0-39.63,0c2.52-8.07,10.44-14,19.82-14Z"/><path class="cls-18" d="M33.59,31.64c8.54,0,15.46-5.31,15.46-11.87S42.13,7.9,33.59,7.9,18.12,13.22,18.12,19.77,25,31.64,33.59,31.64Z"/><path class="cls-19" d="M33.59,17.43c5.4,0,9.78-2,9.78-4.54S39,8.35,33.59,8.35s-9.79,2-9.79,4.54,4.38,4.54,9.79,4.54Z"/><path class="cls-20" d="M16.86,42a22.72,22.72,0,0,1-8.67-9.44c-2.9-5.9-3.47-14,.32-19.45A20.89,20.89,0,0,0,9.32,32a21.52,21.52,0,0,0,8.36,8.67h0A.79.79,0,1,1,16.9,42l0,0Z"/><path class="cls-21" d="M14.17,39.86a19.72,19.72,0,0,1-4.6-5.2A23.12,23.12,0,0,1,6.1,24.56a18.91,18.91,0,0,1,1-8.6,21.07,21.07,0,0,0-.71,8.53A22.11,22.11,0,0,0,10,34.33a31,31,0,0,0,4.61,4.94c.38.38.36.56.27.68s-.38.2-.74-.09Z"/><path class="cls-22" d="M3.72,28.74a2.86,2.86,0,0,1-1.53-.69A6.1,6.1,0,0,1,.53,25.74a3.08,3.08,0,0,0,.92.39,4.39,4.39,0,0,1-1-.77.24.24,0,0,1,0-.08c-.28-1.14-.18-3.14-.39-4a21.53,21.53,0,0,0,2.65,1.12l.42.18c0,.17,0,.36.06.51s.14.12.21,0a.88.88,0,0,0,.1-.34C5,23.44,6.49,24.48,6.53,26c0,.82-.49,1.44-.25,2.32-.64,0-1.76.53-2.56.42Z"/><path class="cls-23" d="M3.64,26.32A23.31,23.31,0,0,1,0,21.26c.21.88.11,2.88.39,4a.24.24,0,0,0,0,.08,4.39,4.39,0,0,0,1,.77,3.08,3.08,0,0,1-.92-.39,6.1,6.1,0,0,0,1.66,2.31,2.86,2.86,0,0,0,1.53.69c.8.11,1.92-.44,2.56-.42a17.62,17.62,0,0,1-2.64-2Z"/><path class="cls-24" d="M.33,23.19c0-.55.1-1.08.36-1.2a3.44,3.44,0,0,1,1.78.32,19.3,19.3,0,0,1-2.47-1c.21.88.11,2.88.39,4a.24.24,0,0,0,0,.08l.13.13a9.85,9.85,0,0,1-.21-2.3Zm.2,2.55a4,4,0,0,0,.27.6Q.7,26.07.62,25.8l-.09-.06Z"/><path class="cls-25" d="M2.71,25.34A5.49,5.49,0,0,0,3,22.51l-.31-.13-.53-.21a4.23,4.23,0,0,1,.24,2.73c.11.15.23.3.35.44Z"/><path class="cls-26" d="M3.88,22.94a6.58,6.58,0,0,1-1,2.64,16.29,16.29,0,0,0,1.2,1.15,5.14,5.14,0,0,0,.49-3.38c-.23-.14-.48-.28-.73-.41Z"/><path class="cls-27" d="M5.17,24.63c1,2.38-1.76,4.57-4.19,2a7,7,0,0,0,1.21,1.41,2.86,2.86,0,0,0,1.53.69c.8.11,1.92-.44,2.56-.42-.24-.88.27-1.5.25-2.32,0-1.4-1.33-2.39-2.73-3.1a3.41,3.41,0,0,1,1.37,1.73Z"/><path class="cls-28" d="M1.08,26.8a4.9,4.9,0,0,0,3-.14l-.35-.31A5,5,0,0,1,.77,26.3c.09.17.2.33.31.5Zm3.14,0a5.09,5.09,0,0,1-2.38.46.58.58,0,0,0,.26.18,3.39,3.39,0,0,0,2.48-.35c-.13-.09-.24-.19-.36-.29Z"/><path class="cls-29" d="M0,21.26a33,33,0,0,0,2.35,3.48,4.33,4.33,0,0,0-.13-2.36,4.2,4.2,0,0,1,.26,2.52,15.58,15.58,0,0,0,1.65,1.73,5.23,5.23,0,0,0,.51-3.07,4.73,4.73,0,0,1-.37,3.19,28.63,28.63,0,0,0,2.37,1.64.66.66,0,0,1,.19.51,11.28,11.28,0,0,0-1.9-1.41.4.4,0,0,0-.42,0,3.64,3.64,0,0,1-2.46.3,4.19,4.19,0,0,0,2.57-.49l-.52-.42a7,7,0,0,1-.64-.57.25.25,0,0,0-.23-.06,3.64,3.64,0,0,1-2.49-.34A4,4,0,0,0,3.22,26,12.86,12.86,0,0,1,2,24.52a.59.59,0,0,0-.26-.21,3.3,3.3,0,0,1-1.33-.82,4.84,4.84,0,0,0,1.37.71C1.13,23.29.6,22.31,0,21.26Z"/><path class="cls-30" d="M12.15,30.11a4.43,4.43,0,0,0,.55-1.95,1.2,1.2,0,0,1-.5.5,7.81,7.81,0,0,0,.5-1.21,11.88,11.88,0,0,0-1-4.15,16.38,16.38,0,0,0-2.52,2.26,1.2,1.2,0,0,0-.36,1.09.43.43,0,0,1-.28-.28,6.11,6.11,0,0,0-1,2A2.37,2.37,0,0,0,7.87,30a17.43,17.43,0,0,0,1.07,1.68,10.66,10.66,0,0,0,1.86-.53,3.3,3.3,0,0,0,1.35-1Z"/><path class="cls-31" d="M11.69,23.3a11.88,11.88,0,0,1,1,4.15,7.81,7.81,0,0,1-.5,1.21,1.2,1.2,0,0,0,.5-.5,4.43,4.43,0,0,1-.55,1.95,3.3,3.3,0,0,1-1.35,1,10.66,10.66,0,0,1-1.86.53c.49-1.14,1.12-2,1.52-3.18a40.28,40.28,0,0,0,1.23-5.17Z"/><path class="cls-32" d="M9.87,30.37a4.51,4.51,0,0,0,2.82-2.14,4.29,4.29,0,0,1-.54,1.88,3.3,3.3,0,0,1-1.35,1,10.66,10.66,0,0,1-1.86.53A17.43,17.43,0,0,1,7.87,30a2.37,2.37,0,0,1-.31-1.59A5.41,5.41,0,0,1,8.12,27c-.38,1.25-.27,3.83,1.75,3.37Z"/><path class="cls-33" d="M10.21,24.51a4.78,4.78,0,0,0,.34,1.26,3.42,3.42,0,0,1-.14-1.44l.33-.28a1.56,1.56,0,0,0,0,.65,2.7,2.7,0,0,0,.42,1.23l-.3,1.23a3.86,3.86,0,0,1-.9-2.4l.27-.25Z"/><path class="cls-34" d="M10.48,28.44a3.71,3.71,0,0,0,2-2.5,9.74,9.74,0,0,1,.17,1.19A4.2,4.2,0,0,1,10,29.53c.21-.38.33-.7.51-1.09Zm1.2-1.12a4.12,4.12,0,0,1-1.18,1l.15-.47a4.72,4.72,0,0,0,.89-.65A4.52,4.52,0,0,0,12.38,26a4,4,0,0,1-.7,1.32Z"/><path class="cls-35" d="M12.69,27.19c-.19-1-.62-3.06-1.22-3.29-.43-.16-1.52.86-2.2,1.55a16.45,16.45,0,0,1,2.42-2.15,12.09,12.09,0,0,1,1,3.89Z"/><path class="cls-36" d="M10.09,29.34l-.23.43A3.75,3.75,0,0,1,8.8,27a5.55,5.55,0,0,0,.77,1.46c.19.34.35.51.52.88Z"/><path class="cls-37" d="M11.69,23.3c-.24.88-.41,1.7-.58,2.5a3.62,3.62,0,0,1-.41-1.58A3.33,3.33,0,0,0,11.07,26a19,19,0,0,1-.54,2,4.69,4.69,0,0,1-.9-2.75,4.17,4.17,0,0,0,.83,3A13.11,13.11,0,0,1,9.67,30l0,.06a5.11,5.11,0,0,1-1.23-3,4.85,4.85,0,0,0,1.15,3.15,6.57,6.57,0,0,0-.62,1.41,4.11,4.11,0,0,0,.24-.39c.26-.48.29-.45.55-.53a4.66,4.66,0,0,0,2.75-1.83,5.18,5.18,0,0,1-3,1.73c.09-.18.18-.36.28-.54.24-.42.31-.52.58-.65a3.91,3.91,0,0,0,2.18-2.07,4.08,4.08,0,0,1-2.4,2,10.81,10.81,0,0,0,.55-1.47c.14-.46.13-.41.34-.58a2.8,2.8,0,0,0,1.26-2,2.88,2.88,0,0,1-1.42,1.91c.29-1.14.5-2.42.81-4Z"/><path class="cls-38" d="M5.23,20.32c.3-1,1.52-1.45,1.34-2.95a3.81,3.81,0,0,0-1.29-2.12c-.68-.68-2.15-1.56-2.16-2.64-.29.85-.71,1.19-.93,1.87a10.22,10.22,0,0,0-.26,1.11,1.37,1.37,0,0,0,.16.91,4.18,4.18,0,0,0,.23.36,2.21,2.21,0,0,1-.27-.25s-.1,0-.14-.05a.27.27,0,0,1-.08-.07,4.09,4.09,0,0,0,.33,2.23,3.69,3.69,0,0,0,3.07,1.6Z"/><path class="cls-39" d="M2.28,14.25a5.4,5.4,0,0,0,.57,1.49,8.42,8.42,0,0,1-.27-2,5.52,5.52,0,0,0,.54-1.09,17,17,0,0,0,.37,4.56A2.69,2.69,0,0,1,2,15.31c0-.17.07-.33.1-.48.07.12.14.24.22.35a4,4,0,0,1-.13-.64v-.06l.09-.23Z"/><path class="cls-40" d="M3.62,17.51a16.16,16.16,0,0,1-.5-4.9c0,1.08,1.48,2,2.16,2.64a3.81,3.81,0,0,1,1.29,2.12c.18,1.5-1,2-1.34,2.95a20.76,20.76,0,0,1-1.61-2.81Z"/><path class="cls-41" d="M4.55,19.27c1.6-.58,1.77-2.29,1.1-3.63a3.2,3.2,0,0,1,.92,1.73c.18,1.5-1,2-1.34,2.95a3.69,3.69,0,0,1-3.07-1.6,3.08,3.08,0,0,1-.34-1.4,2.85,2.85,0,0,0,.66,1.32,1.87,1.87,0,0,0,2.07.63Z"/><path class="cls-42" d="M4.76,16.4a3,3,0,0,1-.74,2L3.9,18.1a2.85,2.85,0,0,0,.63-1.79,3.18,3.18,0,0,1-.79,1.45,6.52,6.52,0,0,1-.34-1.1A3.16,3.16,0,0,0,4,14.08a3,3,0,0,1,.81,2.32Z"/><path class="cls-43" d="M3.12,12.61a14.83,14.83,0,0,0,.27,4.44A2.65,2.65,0,0,1,2,15.43,2.51,2.51,0,0,0,3.23,17.1c.31.22.17.08.31.43a7.46,7.46,0,0,0,.51,1,3.59,3.59,0,0,1-2.17-1.66,3.61,3.61,0,0,0,2,1.72c.2.1.29.09.41.28l.28.43a5.75,5.75,0,0,1-2-1,5.27,5.27,0,0,0,2.14,1.19c.2.3,1.12,1.69,1.27,2.05.1-.83-.12-.54-1-1.95.61-1.22,1.45-2,1-3.43.31,1.45-.42,2-1.09,3.27a8.65,8.65,0,0,1-.61-.85c-.08-.13-.12-.19,0-.33a3.31,3.31,0,0,0,.57-2.12A3.08,3.08,0,0,1,4,18.24a6.69,6.69,0,0,1-.56-1.55A3.31,3.31,0,0,0,4,14.21a3.35,3.35,0,0,1-.55,2.31,18,18,0,0,1-.31-3.91Z"/><path class="cls-44" d="M4.88,17.71a3.71,3.71,0,0,0,0-2.84,5.5,5.5,0,0,1,.42.38l.3.31a2.52,2.52,0,0,1-.7,2.15Z"/><path class="cls-45" d="M7.54,15.07c0-.45-.71-1.33-.77-1.8a3.87,3.87,0,0,1,1.23-3,1.41,1.41,0,0,0,.05.86,2.73,2.73,0,0,1,.44-1.3,5.38,5.38,0,0,1,2.41-1,17.06,17.06,0,0,0,1.84-.19,2.24,2.24,0,0,0-.75,1,3.59,3.59,0,0,1-.62.61,1.52,1.52,0,0,0,.48-.09c-.07.41-.12.93-.21,1.6a10.84,10.84,0,0,1-.24,1.6,2.43,2.43,0,0,1-2.05,1.83,12.36,12.36,0,0,0-1.81-.1Z"/><path class="cls-46" d="M8,10.22a3.87,3.87,0,0,0-1.23,3c.06.47.73,1.35.77,1.8,1-1.05.76-2.57,2-4.19A6.46,6.46,0,0,1,12.74,8.6a17.06,17.06,0,0,1-1.84.19,5.38,5.38,0,0,0-2.41,1,2.73,2.73,0,0,0-.44,1.3A1.41,1.41,0,0,1,8,10.22Z"/><path class="cls-47" d="M8,13.75a3,3,0,0,1-.38-3.13,3.57,3.57,0,0,0-.89,2.65c.06.47.73,1.35.77,1.8a12.36,12.36,0,0,1,1.81.1,2.43,2.43,0,0,0,2.05-1.83,5.36,5.36,0,0,0,.15-.78C11.1,14.1,9.35,15,8,13.75Z"/><path class="cls-48" d="M9.51,9.79A3.26,3.26,0,0,1,9.87,9a7,7,0,0,0-.74.33,3.78,3.78,0,0,0-.55,3.23,6.32,6.32,0,0,1,4.16-4,17.06,17.06,0,0,1-1.84.19h-.05A3.09,3.09,0,0,0,9.56,10s-.08,0-.08,0a.45.45,0,0,1,0-.16Z"/><path class="cls-49" d="M7.33,12.32a4.05,4.05,0,0,0,.46,1.2,3,3,0,0,1,.27.66,2.41,2.41,0,0,1-.35.67c.14-.22.15-.37,0-.77a2.78,2.78,0,0,1-.37-1.76Z"/><path class="cls-50" d="M10.34,12.62a3.14,3.14,0,0,0,1.31-1c0-.12,0-.23,0-.34a2.68,2.68,0,0,1-1,.71,3.7,3.7,0,0,1-2,.29c-.06.17-.12.32-.17.48a4.08,4.08,0,0,0,1.81-.15Z"/><path class="cls-51" d="M9.6,9.93A5.57,5.57,0,0,1,11,9c.21-.08.73-.24.94-.07a.29.29,0,0,1,.08.27,2.45,2.45,0,0,1-.54,1A3,3,0,0,0,12,9.62a2.24,2.24,0,0,1,.75-1,17.06,17.06,0,0,1-1.84.19h-.05A3,3,0,0,0,9.6,9.93Z"/><path class="cls-52" d="M8.47,13c-.05.2-.11.39-.17.58a3.63,3.63,0,0,0,1.76-.16c.08-.06.06-.12.2-.26a3.31,3.31,0,0,0,.45-.39A4,4,0,0,1,8.47,13Z"/><path class="cls-53" d="M12.74,8.6a6.32,6.32,0,0,0-3,2.11,2.84,2.84,0,0,0,2.16-1,2.82,2.82,0,0,1-2.25,1.06,8.86,8.86,0,0,0-.63,1c-.08.15-.16.31-.23.47a3.94,3.94,0,0,0,2.88-.88,3.38,3.38,0,0,1-1.43.9,10.88,10.88,0,0,1-1.49.1,11.5,11.5,0,0,0-.41,1.32l0,.08c1.31.08,2.2.1,3.1-.93a2.41,2.41,0,0,1-1.16.95,10.38,10.38,0,0,1-2,.09,3.26,3.26,0,0,1-.72,1.19,3.23,3.23,0,0,0,.49-.9c-.18-.56-.5-.94-.64-1.4A2.7,2.7,0,0,1,7.53,11c-.37,1.43,0,1.89.54,3.09,0-.13.09-.26.14-.42s.13-.45.19-.67a1,1,0,0,0,.07-.55A6.81,6.81,0,0,1,8.39,11,4.74,4.74,0,0,1,9,9.54a4,4,0,0,0-.45,2.84,4.58,4.58,0,0,1,.27-.66A6.47,6.47,0,0,1,12.74,8.6Z"/><path class="cls-54" d="M6.61,24a1.78,1.78,0,0,0,0-.65c-.14-.92-.65-2.5.13-3.39a6.78,6.78,0,0,1,2.63-1.76,6.31,6.31,0,0,0,2.17-1.55c0,.67.52,1.45.48,2.35a6.84,6.84,0,0,1-1.27,3.67c-.94.85-2.56.69-3.18.8a3.89,3.89,0,0,0-.95.53Z"/><path class="cls-55" d="M11.43,21.49a3.2,3.2,0,0,1-1.94.18A1.77,1.77,0,0,0,10.9,21a3,3,0,0,1-1.76,0,5.79,5.79,0,0,0-1.22.75,4.48,4.48,0,0,0,3.07.54,4.29,4.29,0,0,0,.44-.83Z"/><path class="cls-56" d="M7.93,21.67c.54-.39,1.17-.64,1.73-1,1.53-1,1.75-2.84,1.87-4.05a6.31,6.31,0,0,1-2.17,1.55,6.78,6.78,0,0,0-2.63,1.76c-.78.89-.27,2.47-.13,3.39a1.78,1.78,0,0,1,0,.65,3.85,3.85,0,0,1,1.32-2.29Z"/><path class="cls-57" d="M8.45,23a2.28,2.28,0,0,1-1.27-2.74A4.63,4.63,0,0,1,8.6,18.52a5.42,5.42,0,0,0-1.87,1.4c-.78.89-.27,2.47-.13,3.39a1.78,1.78,0,0,1,0,.65,3.89,3.89,0,0,1,.95-.53A7.85,7.85,0,0,0,10.25,23a2.47,2.47,0,0,1-1.8,0Z"/><path class="cls-58" d="M10.65,17.41a4.24,4.24,0,0,0-1.39,3,2,2,0,0,0,.1.41l.16-.1.14-.09a4,4,0,0,0,.5-.4,3.91,3.91,0,0,1,.29-1.71,3.42,3.42,0,0,1,.07,1.29,6.39,6.39,0,0,0,1-3.23,3.82,3.82,0,0,1-.88.8Z"/><path class="cls-59" d="M9.8,17.94a3.25,3.25,0,0,1,1.26-.34c.6,0,.79.92.81,1.4a6.3,6.3,0,0,1-.14,1.56A7.6,7.6,0,0,0,12,19c0-.9-.48-1.68-.48-2.35A5.46,5.46,0,0,1,9.8,17.94Z"/><path class="cls-60" d="M11.53,16.61c-.14,1.93-.63,3.25-1.8,4.14a2.64,2.64,0,0,0,2.11-1l-.24.31a2.72,2.72,0,0,1-1.93.79,1.15,1.15,0,0,0-.4.19c-.56.33-.94.52-1.23.68a4.54,4.54,0,0,0,2.73.64A4,4,0,0,1,8.1,21.9a.36.36,0,0,0-.37,0l0,0c-.41.3-.66.77-1.08,2a4.54,4.54,0,0,1,.71-1.9.28.28,0,0,0,0-.28c-.47-1.34,0-2.09,1.08-3l-.32.36a2.25,2.25,0,0,0-.61,2.75,3.83,3.83,0,0,1,1-.6,3,3,0,0,1,.75-2.67,3.36,3.36,0,0,1,.59-.6,6.42,6.42,0,0,0-.54.63,3,3,0,0,0-.7,2.59,6.24,6.24,0,0,0,1.25-.77c1.27-1,1.45-2.57,1.63-3.82Z"/><path class="cls-61" d="M6.51,36.36a4,4,0,0,1-3.1-1.89c-.69-1-1.49-2.61-2-3.51.94.49,3.06-.27,4.49-.15a3.18,3.18,0,0,1,2,1.14,2.15,2.15,0,0,1,.34,0,2,2,0,0,1,.81.92,16.25,16.25,0,0,1,.57,2,2.49,2.49,0,0,0,.35.69,32.72,32.72,0,0,0-3.44.79Z"/><path class="cls-62" d="M2.87,31.16a3,3,0,0,1,1.78,1.76l.64.21A2.83,2.83,0,0,0,3.45,31l-.7.08.12.05Z"/><path class="cls-63" d="M5,31.18a3.87,3.87,0,0,1,1.18,2.13l.48.16.57.21C7.08,32.56,7,31.49,6,30.82h0a6,6,0,0,0-1.38.07,3.2,3.2,0,0,1,.45.3Z"/><path class="cls-64" d="M3.41,34.47a4,4,0,0,0,3.1,1.89A32.72,32.72,0,0,1,10,35.57,11.9,11.9,0,0,0,7,33.6c-1.84-.66-3.69-.73-5.58-2.64.49.9,1.29,2.49,2,3.51Z"/><path class="cls-65" d="M8.36,32.26c.59.28.34,2.11,0,2.43C7,36.15,5.56,36,4,35.14a3.61,3.61,0,0,0,2.55,1.22A32.72,32.72,0,0,1,10,35.57a2.49,2.49,0,0,1-.35-.69,16.25,16.25,0,0,0-.57-2,2,2,0,0,0-.81-.92,2.15,2.15,0,0,0-.34,0,6.24,6.24,0,0,0-.81-.69,5.7,5.7,0,0,1,.65.91c.23.33.38,0,.64.09Z"/><path class="cls-66" d="M2.23,32.47c-.12-.38-.17-.82.29-1a5.86,5.86,0,0,1,2.11-.29,4.64,4.64,0,0,1,1.73-.25,1.81,1.81,0,0,0-.44-.09c-1.43-.12-3.55.64-4.49.15l.8,1.51Z"/><path class="cls-67" d="M2.93,33.71a3.82,3.82,0,0,0,2.31,1.07c1,0,1.9-.78,2.93-.59a3,3,0,0,0-1-.5,13.86,13.86,0,0,0-2,.25,3.77,3.77,0,0,1-2.35-.77L2.53,33c.13.24.27.47.4.7Z"/><path class="cls-68" d="M1.43,31a8.15,8.15,0,0,0,3.09,1.82,3,3,0,0,0-1.65-1.62,2.78,2.78,0,0,1,1.82,1.67c.53.17,1,.29,1.42.4a4.58,4.58,0,0,0-1.12-2,6.45,6.45,0,0,1,.86,1,5.06,5.06,0,0,1,.42,1.09,3.17,3.17,0,0,1,.43.13A6.67,6.67,0,0,1,8,34a5.79,5.79,0,0,0-.12-1.57,4.3,4.3,0,0,1,.3,1.67A9.32,9.32,0,0,1,10,35.57c-.54-.42-.94-.78-1.43-1.09C7.05,35.93,5.72,36,4,34.88c1.71.85,2.91.87,4.31-.51a5.51,5.51,0,0,0-1-.49,1.41,1.41,0,0,0-.92-.07,4,4,0,0,1-3.65-.64c1.56.91,2.17.77,3.78.45-1.87-.57-3.74-1-5.09-2.66Z"/><path class="cls-69" d="M50.31,42A22.65,22.65,0,0,0,59,32.58c2.9-5.9,3.47-14-.32-19.45A20.89,20.89,0,0,1,57.85,32a21.52,21.52,0,0,1-8.36,8.67h0a.8.8,0,0,0-.3,1.08.79.79,0,0,0,1.08.29l0,0Z"/><path class="cls-70" d="M53,39.86a19.72,19.72,0,0,0,4.6-5.2,23.12,23.12,0,0,0,3.47-10.1A18.78,18.78,0,0,0,60,16a21.07,21.07,0,0,1,.71,8.53,22,22,0,0,1-3.6,9.84,31,31,0,0,1-4.61,4.94c-.38.38-.36.56-.27.68s.38.2.74-.09Z"/><path class="cls-71" d="M63.45,28.74A2.86,2.86,0,0,0,65,28.05a6.24,6.24,0,0,0,1.67-2.31,3.25,3.25,0,0,1-.93.39,4.39,4.39,0,0,0,1-.77l0-.08c.27-1.14.17-3.14.38-4a21.53,21.53,0,0,1-2.65,1.12l-.42.18c0,.17,0,.36-.06.51s-.14.12-.21,0a.88.88,0,0,1-.1-.34c-1.54.71-3,1.75-3.09,3.27,0,.82.49,1.44.25,2.32.64,0,1.76.53,2.56.42Z"/><path class="cls-72" d="M63.53,26.32a23.31,23.31,0,0,0,3.64-5.06c-.21.88-.11,2.88-.38,4l0,.08a4.39,4.39,0,0,1-1,.77,3.25,3.25,0,0,0,.93-.39A6.24,6.24,0,0,1,65,28.05a2.86,2.86,0,0,1-1.53.69c-.8.11-1.92-.44-2.56-.42a17.62,17.62,0,0,0,2.64-2Z"/><path class="cls-73" d="M66.84,23.19c0-.55-.1-1.08-.36-1.2a3.44,3.44,0,0,0-1.78.32,19.3,19.3,0,0,0,2.47-1c-.21.88-.11,2.88-.38,4l0,.08a1.59,1.59,0,0,1-.13.13,9.85,9.85,0,0,0,.21-2.3Zm-.19,2.55a5.38,5.38,0,0,1-.28.6q.1-.27.18-.54l.1-.06Z"/><path class="cls-74" d="M64.46,25.34a5.49,5.49,0,0,1-.25-2.83l.31-.13.53-.21a4.23,4.23,0,0,0-.24,2.73c-.11.15-.23.3-.35.44Z"/><path class="cls-75" d="M63.29,22.94a6.58,6.58,0,0,0,1,2.64,14.52,14.52,0,0,1-1.2,1.15,5.14,5.14,0,0,1-.49-3.38c.23-.14.48-.28.73-.41Z"/><path class="cls-76" d="M62,24.63c-1,2.38,1.76,4.57,4.19,2A7,7,0,0,1,65,28.05a2.86,2.86,0,0,1-1.53.69c-.8.11-1.92-.44-2.56-.42.24-.88-.27-1.5-.25-2.32,0-1.4,1.33-2.39,2.73-3.1A3.41,3.41,0,0,0,62,24.63Z"/><path class="cls-77" d="M66.09,26.8a4.9,4.9,0,0,1-3-.14l.35-.31a5,5,0,0,0,2.92-.05,4.53,4.53,0,0,1-.31.5Zm-3.14,0a5.09,5.09,0,0,0,2.38.46.53.53,0,0,1-.26.18,3.39,3.39,0,0,1-2.48-.35c.13-.09.24-.19.36-.29Z"/><path class="cls-78" d="M67.17,21.26a31.58,31.58,0,0,1-2.35,3.48A4.24,4.24,0,0,1,65,22.38a4.13,4.13,0,0,0-.27,2.52A15.58,15.58,0,0,1,63,26.63a5.31,5.31,0,0,1-.51-3.07,4.73,4.73,0,0,0,.37,3.19,28.63,28.63,0,0,1-2.37,1.64.7.7,0,0,0-.19.51,11.7,11.7,0,0,1,1.9-1.41.4.4,0,0,1,.42,0,3.66,3.66,0,0,0,2.46.3,4.19,4.19,0,0,1-2.57-.49l.52-.42a7,7,0,0,0,.64-.57.25.25,0,0,1,.23-.06,3.64,3.64,0,0,0,2.49-.34A4,4,0,0,1,64,26a12.86,12.86,0,0,0,1.26-1.52.59.59,0,0,1,.26-.21,3.3,3.3,0,0,0,1.33-.82,4.84,4.84,0,0,1-1.37.71c.61-.91,1.14-1.89,1.74-2.94Z"/><path class="cls-79" d="M55,30.11a4.43,4.43,0,0,1-.55-1.95,1.2,1.2,0,0,0,.5.5,7.81,7.81,0,0,1-.5-1.21,11.88,11.88,0,0,1,1-4.15A16.38,16.38,0,0,1,58,25.56a1.2,1.2,0,0,1,.36,1.09.43.43,0,0,0,.28-.28,6.11,6.11,0,0,1,1,2,2.42,2.42,0,0,1-.3,1.59,19.77,19.77,0,0,1-1.08,1.68,10.66,10.66,0,0,1-1.86-.53,3.3,3.3,0,0,1-1.35-1Z"/><path class="cls-80" d="M55.48,23.3a11.88,11.88,0,0,0-1,4.15,7.81,7.81,0,0,0,.5,1.21,1.2,1.2,0,0,1-.5-.5A4.43,4.43,0,0,0,55,30.11a3.3,3.3,0,0,0,1.35,1,10.66,10.66,0,0,0,1.86.53c-.49-1.14-1.12-2-1.52-3.18a40.28,40.28,0,0,1-1.23-5.17Z"/><path class="cls-81" d="M57.31,30.37a4.51,4.51,0,0,1-2.83-2.14A4.29,4.29,0,0,0,55,30.11a3.3,3.3,0,0,0,1.35,1,10.66,10.66,0,0,0,1.86.53A19.77,19.77,0,0,0,59.31,30a2.42,2.42,0,0,0,.3-1.59A5.41,5.41,0,0,0,59.05,27c.39,1.25.27,3.83-1.74,3.37Z"/><path class="cls-82" d="M57,24.51a4.78,4.78,0,0,1-.34,1.26,3.42,3.42,0,0,0,.14-1.44l-.32-.28a1.76,1.76,0,0,1,0,.65A2.59,2.59,0,0,1,56,25.93c.1.41.2.82.31,1.23a3.91,3.91,0,0,0,.89-2.4L57,24.51Z"/><path class="cls-83" d="M56.69,28.44a3.71,3.71,0,0,1-2-2.5,9.74,9.74,0,0,0-.17,1.19,4.2,4.2,0,0,0,2.72,2.4c-.21-.38-.33-.7-.51-1.09Zm-1.2-1.12a4.12,4.12,0,0,0,1.18,1l-.15-.47a4.72,4.72,0,0,1-.89-.65A4.26,4.26,0,0,1,54.8,26a3.84,3.84,0,0,0,.69,1.32Z"/><path class="cls-84" d="M54.48,27.19c.19-1,.62-3.06,1.22-3.29.43-.16,1.52.86,2.2,1.55a16.45,16.45,0,0,0-2.42-2.15,12.09,12.09,0,0,0-1,3.89Z"/><path class="cls-85" d="M57.08,29.34l.23.43A3.75,3.75,0,0,0,58.37,27a5.82,5.82,0,0,1-.76,1.46,8.55,8.55,0,0,0-.53.88Z"/><path class="cls-86" d="M55.48,23.3c.24.88.41,1.7.58,2.5a3.62,3.62,0,0,0,.41-1.58A3.42,3.42,0,0,1,56.11,26a16.76,16.76,0,0,0,.53,2,4.69,4.69,0,0,0,.9-2.75,4.17,4.17,0,0,1-.83,3A13.11,13.11,0,0,0,57.5,30l0,.06a5.11,5.11,0,0,0,1.23-3,4.79,4.79,0,0,1-1.15,3.15,6.11,6.11,0,0,1,.62,1.41,4.11,4.11,0,0,1-.24-.39c-.26-.48-.29-.45-.55-.53a4.66,4.66,0,0,1-2.75-1.83,5.18,5.18,0,0,0,3,1.73c-.09-.18-.18-.36-.28-.54-.24-.42-.31-.52-.58-.65a3.91,3.91,0,0,1-2.18-2.07,4.11,4.11,0,0,0,2.4,2,10.81,10.81,0,0,1-.55-1.47c-.14-.46-.13-.41-.34-.58a2.83,2.83,0,0,1-1.26-2,2.88,2.88,0,0,0,1.42,1.91c-.29-1.14-.5-2.42-.81-4Z"/><path class="cls-87" d="M61.94,20.32c-.3-1-1.52-1.45-1.33-2.95a3.74,3.74,0,0,1,1.28-2.12c.68-.68,2.15-1.56,2.16-2.64.29.85.71,1.19.93,1.87a8.31,8.31,0,0,1,.26,1.11,1.37,1.37,0,0,1-.16.91,4.18,4.18,0,0,1-.23.36,3.53,3.53,0,0,0,.28-.25s.09,0,.13-.05a.27.27,0,0,0,.08-.07A4.09,4.09,0,0,1,65,18.72a3.69,3.69,0,0,1-3.07,1.6Z"/><path class="cls-88" d="M64.89,14.25a5.68,5.68,0,0,1-.56,1.49,9.54,9.54,0,0,0,.27-2,5,5,0,0,1-.55-1.09,17,17,0,0,1-.37,4.56,2.71,2.71,0,0,0,1.51-1.86c0-.17-.07-.33-.11-.48a2.56,2.56,0,0,1-.22.35,4,4,0,0,0,.13-.64v-.06l-.09-.23Z"/><path class="cls-89" d="M63.56,17.51a16.43,16.43,0,0,0,.49-4.9c0,1.08-1.48,2-2.16,2.64a3.74,3.74,0,0,0-1.28,2.12c-.19,1.5,1,2,1.33,2.95a22,22,0,0,0,1.62-2.81Z"/><path class="cls-90" d="M62.62,19.27c-1.6-.58-1.76-2.29-1.1-3.63a3.12,3.12,0,0,0-.91,1.73c-.19,1.5,1,2,1.33,2.95A3.69,3.69,0,0,0,65,18.72a3.08,3.08,0,0,0,.34-1.4,2.85,2.85,0,0,1-.66,1.32,1.87,1.87,0,0,1-2.07.63Z"/><path class="cls-91" d="M62.41,16.4a3,3,0,0,0,.74,2l.12-.26a2.85,2.85,0,0,1-.63-1.79,3.18,3.18,0,0,0,.79,1.45,5.71,5.71,0,0,0,.34-1.1,3.16,3.16,0,0,1-.55-2.58,3,3,0,0,0-.81,2.32Z"/><path class="cls-92" d="M64.05,12.61a14.83,14.83,0,0,1-.27,4.44,2.65,2.65,0,0,0,1.37-1.62,2.51,2.51,0,0,1-1.21,1.67c-.3.22-.17.08-.31.43a7.46,7.46,0,0,1-.51,1,3.59,3.59,0,0,0,2.17-1.66,3.62,3.62,0,0,1-2,1.72c-.21.1-.3.09-.42.28l-.28.43a5.75,5.75,0,0,0,2-1,5.27,5.27,0,0,1-2.14,1.19c-.2.3-1.12,1.69-1.27,2.05-.1-.83.12-.54,1-1.95-.61-1.22-1.45-2-1-3.43-.31,1.45.43,2,1.09,3.27a8.65,8.65,0,0,0,.61-.85c.08-.13.12-.19,0-.33a3.31,3.31,0,0,1-.57-2.12,3.13,3.13,0,0,0,.73,2.11,6.69,6.69,0,0,0,.56-1.55,3.31,3.31,0,0,1-.51-2.48,3.35,3.35,0,0,0,.55,2.31,18,18,0,0,0,.31-3.91Z"/><path class="cls-93" d="M62.29,17.71a3.76,3.76,0,0,1,0-2.84,5.5,5.5,0,0,0-.42.38l-.3.31a2.52,2.52,0,0,0,.7,2.15Z"/><path class="cls-94" d="M59.63,15.07c0-.45.71-1.33.77-1.8a3.87,3.87,0,0,0-1.23-3,1.41,1.41,0,0,1-.05.86,2.73,2.73,0,0,0-.44-1.3,5.38,5.38,0,0,0-2.41-1,17.06,17.06,0,0,1-1.84-.19,2.17,2.17,0,0,1,.75,1,3.59,3.59,0,0,0,.62.61,1.52,1.52,0,0,1-.48-.09c.08.41.12.93.21,1.6a10.84,10.84,0,0,0,.24,1.6,2.43,2.43,0,0,0,2.06,1.83,12.15,12.15,0,0,1,1.8-.1Z"/><path class="cls-95" d="M59.17,10.22a3.87,3.87,0,0,1,1.23,3c-.06.47-.73,1.35-.77,1.8-1-1.05-.76-2.57-2-4.19A6.46,6.46,0,0,0,54.43,8.6a17.06,17.06,0,0,0,1.84.19,5.38,5.38,0,0,1,2.41,1,2.73,2.73,0,0,1,.44,1.3,1.41,1.41,0,0,0,.05-.86Z"/><path class="cls-96" d="M59.13,13.75a3,3,0,0,0,.38-3.13,3.57,3.57,0,0,1,.89,2.65c-.06.47-.73,1.35-.77,1.8a12.15,12.15,0,0,0-1.8.1,2.43,2.43,0,0,1-2.06-1.83,5.36,5.36,0,0,1-.15-.78c.45,1.54,2.2,2.47,3.51,1.19Z"/><path class="cls-97" d="M57.66,9.79A3.26,3.26,0,0,0,57.3,9a7,7,0,0,1,.74.33,3.78,3.78,0,0,1,.55,3.23,6.32,6.32,0,0,0-4.16-4,17.06,17.06,0,0,0,1.84.19h0A3.09,3.09,0,0,1,57.61,10s.08,0,.08,0a.45.45,0,0,0,0-.16Z"/><path class="cls-98" d="M59.84,12.32a4.05,4.05,0,0,1-.46,1.2,3,3,0,0,0-.27.66,2.41,2.41,0,0,0,.35.67c-.14-.22-.15-.37,0-.77a2.84,2.84,0,0,0,.36-1.76Z"/><path class="cls-99" d="M56.83,12.62a3.14,3.14,0,0,1-1.31-1c0-.12,0-.23,0-.34a2.65,2.65,0,0,0,1,.71,3.7,3.7,0,0,0,2,.29c.06.17.12.32.17.48a4.08,4.08,0,0,1-1.81-.15Z"/><path class="cls-100" d="M57.57,9.93A5.57,5.57,0,0,0,56.19,9c-.21-.08-.73-.24-.94-.07a.29.29,0,0,0-.08.27,2.45,2.45,0,0,0,.54,1,3,3,0,0,1-.53-.53,2.17,2.17,0,0,0-.75-1,17.06,17.06,0,0,0,1.84.19h0a3,3,0,0,1,1.25,1.13Z"/><path class="cls-101" d="M58.7,13c.06.2.11.39.17.58a3.63,3.63,0,0,1-1.76-.16c-.08-.06-.06-.12-.2-.26a3.31,3.31,0,0,1-.45-.39A4,4,0,0,0,58.7,13Z"/><path class="cls-102" d="M54.43,8.6a6.32,6.32,0,0,1,3,2.11,2.84,2.84,0,0,1-2.16-1,2.82,2.82,0,0,0,2.25,1.06,7.58,7.58,0,0,1,.63,1c.08.15.16.31.23.47a3.94,3.94,0,0,1-2.88-.88,3.38,3.38,0,0,0,1.43.9,11,11,0,0,0,1.49.1,11.5,11.5,0,0,1,.41,1.32l0,.08c-1.31.08-2.2.1-3.1-.93a2.41,2.41,0,0,0,1.16.95,10.38,10.38,0,0,0,2,.09,3.26,3.26,0,0,0,.72,1.19,3.51,3.51,0,0,1-.49-.9c.18-.56.5-.94.64-1.4A2.64,2.64,0,0,0,59.64,11c.37,1.43,0,1.89-.54,3.09-.05-.13-.09-.26-.14-.42s-.13-.45-.19-.67a1.13,1.13,0,0,1-.07-.55,6.81,6.81,0,0,0,.08-1.4,4.92,4.92,0,0,0-.63-1.47,4.11,4.11,0,0,1,.45,2.84,6.21,6.21,0,0,0-.28-.66A6.47,6.47,0,0,0,54.43,8.6Z"/><path class="cls-103" d="M60.56,24a1.78,1.78,0,0,1,0-.65c.14-.92.65-2.5-.13-3.39a6.78,6.78,0,0,0-2.63-1.76,6.31,6.31,0,0,1-2.17-1.55c0,.67-.52,1.45-.48,2.35a6.92,6.92,0,0,0,1.27,3.67c.94.85,2.56.69,3.18.8a3.89,3.89,0,0,1,1,.53Z"/><path class="cls-104" d="M55.74,21.49a3.2,3.2,0,0,0,1.94.18A1.77,1.77,0,0,1,56.27,21,3,3,0,0,0,58,21a5.79,5.79,0,0,1,1.22.75,4.47,4.47,0,0,1-3.07.54,4.29,4.29,0,0,1-.44-.83Z"/><path class="cls-105" d="M59.24,21.67c-.54-.39-1.17-.64-1.73-1-1.53-1-1.74-2.84-1.87-4.05a6.31,6.31,0,0,0,2.17,1.55,6.78,6.78,0,0,1,2.63,1.76c.78.89.27,2.47.13,3.39a1.78,1.78,0,0,0,0,.65,3.85,3.85,0,0,0-1.32-2.29Z"/><path class="cls-106" d="M58.72,23A2.27,2.27,0,0,0,60,20.24a4.63,4.63,0,0,0-1.42-1.72,5.42,5.42,0,0,1,1.87,1.4c.78.89.27,2.47.13,3.39a1.78,1.78,0,0,0,0,.65,3.89,3.89,0,0,0-1-.53A7.85,7.85,0,0,1,56.92,23a2.47,2.47,0,0,0,1.8,0Z"/><path class="cls-107" d="M56.52,17.41a4.2,4.2,0,0,1,1.39,3,3,3,0,0,1-.09.41l-.17-.1-.14-.09a4,4,0,0,1-.5-.4,3.91,3.91,0,0,0-.29-1.71,3.42,3.42,0,0,0-.07,1.29,6.39,6.39,0,0,1-1-3.23,3.82,3.82,0,0,0,.88.8Z"/><path class="cls-108" d="M57.37,17.94a3.25,3.25,0,0,0-1.26-.34c-.6,0-.79.92-.81,1.4a6.81,6.81,0,0,0,.14,1.56,7.6,7.6,0,0,1-.28-1.6c0-.9.48-1.68.48-2.35a5.46,5.46,0,0,0,1.73,1.33Z"/><path class="cls-109" d="M55.64,16.61c.14,1.93.64,3.25,1.8,4.14a2.64,2.64,0,0,1-2.11-1l.24.31a2.72,2.72,0,0,0,1.93.79,1.15,1.15,0,0,1,.4.19c.56.33.94.52,1.23.68a4.52,4.52,0,0,1-2.73.64,4,4,0,0,0,2.67-.48.35.35,0,0,1,.37,0l.05,0c.4.3.65.77,1.07,2a4.54,4.54,0,0,0-.71-1.9.31.31,0,0,1-.05-.28c.47-1.34,0-2.09-1.08-3,.26.3.05.06.33.36a2.26,2.26,0,0,1,.6,2.75,3.92,3.92,0,0,0-1-.6,3,3,0,0,0-.76-2.67,3.05,3.05,0,0,0-.59-.6,6.53,6.53,0,0,1,.55.63,3,3,0,0,1,.69,2.59,6.24,6.24,0,0,1-1.25-.77c-1.27-1-1.45-2.57-1.63-3.82Z"/><path class="cls-110" d="M60.66,36.36a4,4,0,0,0,3.1-1.89c.69-1,1.49-2.61,2-3.51-.94.49-3.06-.27-4.49-.15a3.18,3.18,0,0,0-2,1.14,2.15,2.15,0,0,0-.34,0,2,2,0,0,0-.81.92,16.25,16.25,0,0,0-.57,2,2.49,2.49,0,0,1-.35.69,32.72,32.72,0,0,1,3.44.79Z"/><path class="cls-111" d="M64.3,31.16a3,3,0,0,0-1.78,1.76l-.64.21A2.83,2.83,0,0,1,63.72,31l.7.08-.12.05Z"/><path class="cls-112" d="M62.18,31.18A3.94,3.94,0,0,0,61,33.31l-.48.16-.57.21c.14-1.12.23-2.19,1.25-2.86h0a6,6,0,0,1,1.38.07,3.2,3.2,0,0,0-.45.3Z"/><path class="cls-113" d="M63.76,34.47a4,4,0,0,1-3.1,1.89,32.72,32.72,0,0,0-3.44-.79,11.9,11.9,0,0,1,2.94-2c1.84-.66,3.69-.73,5.58-2.64-.49.9-1.29,2.49-2,3.51Z"/><path class="cls-114" d="M58.82,32.26c-.6.28-.35,2.11,0,2.43,1.38,1.46,2.83,1.31,4.43.45a3.61,3.61,0,0,1-2.55,1.22,32.72,32.72,0,0,0-3.44-.79,2.49,2.49,0,0,0,.35-.69,16.25,16.25,0,0,1,.57-2,2,2,0,0,1,.81-.92,2.15,2.15,0,0,1,.34,0,5.66,5.66,0,0,1,.82-.69,5.18,5.18,0,0,0-.66.91c-.23.33-.38,0-.63.09Z"/><path class="cls-115" d="M64.94,32.47c.12-.38.17-.82-.29-1a5.83,5.83,0,0,0-2.11-.29,4.59,4.59,0,0,0-1.73-.25,1.81,1.81,0,0,1,.44-.09c1.43-.12,3.55.64,4.49.15l-.8,1.51Z"/><path class="cls-116" d="M64.24,33.71a3.82,3.82,0,0,1-2.3,1.07c-1,0-1.91-.78-2.94-.59a3,3,0,0,1,1-.5,13.7,13.7,0,0,1,2,.25,3.75,3.75,0,0,0,2.35-.77l.21-.16c-.13.24-.27.47-.4.7Z"/><path class="cls-117" d="M65.74,31a8,8,0,0,1-3.09,1.82,3,3,0,0,1,1.65-1.62,2.78,2.78,0,0,0-1.82,1.67c-.53.17-1,.29-1.42.4a4.58,4.58,0,0,1,1.12-2,6.45,6.45,0,0,0-.86,1,5.65,5.65,0,0,0-.42,1.09,3.17,3.17,0,0,0-.43.13,6.67,6.67,0,0,0-1.29.55,5.79,5.79,0,0,1,.12-1.57,4.3,4.3,0,0,0-.3,1.67,9.32,9.32,0,0,0-1.78,1.52c.54-.42.94-.78,1.43-1.09,1.47,1.45,2.8,1.47,4.5.4-1.72.85-2.91.87-4.32-.51a5.51,5.51,0,0,1,1-.49,1.41,1.41,0,0,1,.92-.07,4,4,0,0,0,3.65-.64c-1.56.91-2.17.77-3.78.45,1.87-.57,3.74-1,5.09-2.66Z"/><path class="cls-118" d="M28.43,33.41a2.16,2.16,0,0,1-1.57-.64,2.14,2.14,0,0,1-.66-1.59,2.32,2.32,0,0,1,.2-.93,2.17,2.17,0,0,1,.56-.74l.71-.63.71-.62c2.15-1.88,3.68-3.24,4.58-4.1a13.72,13.72,0,0,0,2-2.32,3.8,3.8,0,0,0,.68-2.08,2.18,2.18,0,0,0-.63-1.68,2.54,2.54,0,0,0-1.78-.58,2.42,2.42,0,0,0-1.31.31,1.9,1.9,0,0,0-.73.76,8.07,8.07,0,0,0-.5,1.24,2.12,2.12,0,0,1-.89,1.29,2.42,2.42,0,0,1-1.21.33A2.61,2.61,0,0,1,27.23,21a1.76,1.76,0,0,1-.65-1.59,5,5,0,0,1,.67-2.3,6,6,0,0,1,2.26-2.26,7.91,7.91,0,0,1,4.18-1,7.1,7.1,0,0,1,4.78,1.51,5.15,5.15,0,0,1,1.76,4.15,6.41,6.41,0,0,1-.72,3,11,11,0,0,1-1.94,2.59q-1.22,1.21-3.63,3.32l-1.14,1v.08h5.86a1.86,1.86,0,0,1,1.37.55,1.94,1.94,0,0,1,0,2.73,1.84,1.84,0,0,1-1.37.57Z"/><path class="cls-119" d="M28.43,32.71a2.22,2.22,0,0,1-2.23-2.23A2.21,2.21,0,0,1,27,28.8l.71-.62.71-.62c2.15-1.88,3.68-3.24,4.58-4.1a13.72,13.72,0,0,0,2-2.32,3.8,3.8,0,0,0,.68-2.08,2.18,2.18,0,0,0-.63-1.68,2.54,2.54,0,0,0-1.78-.58,2.52,2.52,0,0,0-1.31.3,2,2,0,0,0-.73.77,7.66,7.66,0,0,0-.5,1.24,2.12,2.12,0,0,1-.89,1.29,2.42,2.42,0,0,1-1.21.33,2.53,2.53,0,0,1-1.41-.42,1.73,1.73,0,0,1-.65-1.58,5,5,0,0,1,.67-2.3,6,6,0,0,1,2.26-2.26,7.91,7.91,0,0,1,4.18-1,7.1,7.1,0,0,1,4.78,1.51,5.15,5.15,0,0,1,1.76,4.15,6.41,6.41,0,0,1-.72,3,10.78,10.78,0,0,1-1.94,2.58c-.81.82-2,1.92-3.63,3.33l-1.14,1v.08h5.86a1.86,1.86,0,0,1,1.37.55,1.94,1.94,0,0,1,0,2.73,1.84,1.84,0,0,1-1.37.57Z"/><path class="cls-120" d="M28.43,32.29H38.66a1.44,1.44,0,0,0,1.07-.44,1.48,1.48,0,0,0,.44-1.07,1.49,1.49,0,0,0-1.51-1.5H32.37v-.69l1.29-1.12c1.23-1.06,2.46-2.16,3.61-3.31a10.3,10.3,0,0,0,1.87-2.48,6,6,0,0,0,.67-2.82A4.74,4.74,0,0,0,38.19,15a6.73,6.73,0,0,0-4.5-1.41,7.65,7.65,0,0,0-4,.91,5.79,5.79,0,0,0-2.1,2.1,4.75,4.75,0,0,0-.63,2.1A1.43,1.43,0,0,0,27.46,20a2.15,2.15,0,0,0,1.18.35,2,2,0,0,0,1-.28,1.78,1.78,0,0,0,.7-1.05,8.71,8.71,0,0,1,.52-1.31,2.48,2.48,0,0,1,.89-.93,2.91,2.91,0,0,1,1.53-.36,3,3,0,0,1,2.06.69,2.58,2.58,0,0,1,.77,2,4.15,4.15,0,0,1-.75,2.31,14.18,14.18,0,0,1-2.11,2.4c-.6.57-1.21,1.12-1.83,1.67-.91.82-1.84,1.63-2.76,2.44L28,28.5l-.71.63a1.56,1.56,0,0,0-.45.6,1.79,1.79,0,0,0-.17.75,1.67,1.67,0,0,0,.54,1.28,1.73,1.73,0,0,0,1.27.53Z"/><path class="cls-121" d="M38.17,23.16a11.08,11.08,0,0,0,1-1.48,6,6,0,0,0,.67-2.82A4.74,4.74,0,0,0,38.19,15a6.73,6.73,0,0,0-4.5-1.41,7.65,7.65,0,0,0-4,.91,5.79,5.79,0,0,0-2.1,2.1,4.75,4.75,0,0,0-.63,2.1A1.43,1.43,0,0,0,27.46,20a2.15,2.15,0,0,0,1.18.35,2,2,0,0,0,1-.28,1.78,1.78,0,0,0,.7-1.05,8.71,8.71,0,0,1,.52-1.31,2.48,2.48,0,0,1,.89-.93,2.91,2.91,0,0,1,1.53-.36,3,3,0,0,1,2.06.69,2.58,2.58,0,0,1,.77,2,4.15,4.15,0,0,1-.75,2.31,13.14,13.14,0,0,1-1.48,1.79Z"/><path class="cls-122" d="M33.59,31.75c10.21,0,19.28,2,24.95,5.11a1.73,1.73,0,0,1,.61,2.46A30.9,30.9,0,0,1,50.55,48c1.17-.79.47-2-.44-2.58-2.46-1.63-8.93-2.79-16.52-2.79a95.58,95.58,0,0,1,0-10.84Z"/><path class="cls-123" d="M33.59,31.75c-10.22,0-19.29,2-25,5.11A1.71,1.71,0,0,0,8,39.32,30.73,30.73,0,0,0,16.62,48c-1.17-.79-.47-2,.44-2.58,2.46-1.63,8.93-2.79,16.53-2.79a100.48,100.48,0,0,0,0-10.84Z"/><path class="cls-124" d="M15.53,43.83a1.89,1.89,0,0,0-.78,2.78l.58.44a2,2,0,0,1,1-2.45c2.75-1.76,9.46-3,17.3-3v-1c-8.08,0-15,1.31-18.06,3.21ZM9,40.67a2.2,2.2,0,0,1,1.2-2.26c5.08-2.83,13.67-4.69,23.42-4.69v-1c-10,0-18.82,1.93-24.19,4.9A2.35,2.35,0,0,0,8.15,39.5c.26.4.54.79.82,1.17Z"/><path class="cls-125" d="M33.59,32.6c-9,0-17,1.6-22.36,4.13,5.43-2.45,13.43-4,22.36-4V32.6ZM17.45,42.9c3.56-1.38,9.46-2.28,16.14-2.28v-.1c-6.71,0-12.63.94-16.14,2.38Z"/><path class="cls-126" d="M17.15,45.32a39.46,39.46,0,0,1-7.58-9l-.93.49a1.67,1.67,0,0,0-.65.61,1.73,1.73,0,0,0,.16.37,35.06,35.06,0,0,0,8,8.51,2.61,2.61,0,0,1,.9-1l.09-.06Z"/><path class="cls-127" d="M51.64,43.83a1.89,1.89,0,0,1,.78,2.78l-.58.44a2,2,0,0,0-1-2.45c-2.75-1.76-9.46-3-17.29-3v-1c8.07,0,15,1.31,18,3.21Zm6.56-3.16A2.18,2.18,0,0,0,57,38.41c-5.08-2.83-13.67-4.69-23.41-4.69v-1c10,0,18.81,1.93,24.18,4.9A2.35,2.35,0,0,1,59,39.5c-.26.4-.54.79-.82,1.17Z"/><path class="cls-125" d="M33.59,32.6c8.94,0,16.95,1.6,22.35,4.13-5.43-2.45-13.43-4-22.35-4V32.6ZM49.72,42.9c-3.56-1.38-9.46-2.28-16.13-2.28v-.1c6.7,0,12.62.94,16.13,2.38Z"/><path class="cls-128" d="M50,45.32a39.46,39.46,0,0,0,7.58-9l.94.49a1.71,1.71,0,0,1,.64.61,1.73,1.73,0,0,1-.16.37,35.06,35.06,0,0,1-8,8.51,2.53,2.53,0,0,0-.9-1L50,45.32Z"/><path class="cls-129" d="M23.31,40.59a.61.61,0,0,1-.47-.1.61.61,0,0,1-.22-.42l-.56-4.14a.62.62,0,0,1,.13-.51.67.67,0,0,1,1-.13.63.63,0,0,1,.27.45l.5,3.63,1.87-.26a.57.57,0,0,1,.42.11.59.59,0,0,1,.22.37.57.57,0,0,1-.48.64l-2.64.36Zm4.33-.53a.58.58,0,0,1-.46-.12A.62.62,0,0,1,27,39.5l-.28-4.19a.56.56,0,0,1,.12-.46.62.62,0,0,1,.44-.19l2.64-.18a.55.55,0,0,1,.4.14.56.56,0,0,1,.19.38.55.55,0,0,1-.14.4.52.52,0,0,1-.38.19l-1.88.13.07,1.05,1.55-.11a.51.51,0,0,1,.39.14.48.48,0,0,1,.19.36.58.58,0,0,1-.13.4.54.54,0,0,1-.37.19l-1.55.1.07,1,2-.13a.51.51,0,0,1,.4.13.56.56,0,0,1,.06.78.57.57,0,0,1-.38.2l-2.78.18Zm5.92-.18a.92.92,0,0,1-.62-.2,1.12,1.12,0,0,1-.39-.52l-1.33-3.91a1,1,0,0,1,0-.22.68.68,0,0,1,.67-.67.67.67,0,0,1,.41.13.63.63,0,0,1,.24.34l.86,2.82a5.6,5.6,0,0,1,.17.63l0,.13,0,.14h0l0-.14,0-.13c0-.24.1-.45.16-.64l.84-2.85a.63.63,0,0,1,1-.27.62.62,0,0,1,.18.44.71.71,0,0,1,0,.21l-1.31,4a1,1,0,0,1-.38.53,1.05,1.05,0,0,1-.63.2Zm3.55,0a.59.59,0,0,1-.44-.19.62.62,0,0,1-.13-.46l.28-4.19a.67.67,0,0,1,.19-.44.62.62,0,0,1,.46-.13l2.64.18a.57.57,0,0,1,.38.2.53.53,0,0,1,.13.4.54.54,0,0,1-.19.38.51.51,0,0,1-.4.13l-1.88-.12-.07,1.05,1.55.1A.54.54,0,0,1,40,37a.5.5,0,0,1,.13.39.53.53,0,0,1-.18.37.47.47,0,0,1-.39.13L38,37.79l-.07,1.05L40,39a.56.56,0,0,1-.08,1.11l-2.77-.19Zm4.5.38a.62.62,0,0,1-.43-.22.6.6,0,0,1-.09-.47l.57-4.13a.64.64,0,0,1,.26-.46.62.62,0,0,1,.51-.13.67.67,0,0,1,.59.77l-.5,3.63,1.88.26a.56.56,0,0,1,.37.21.57.57,0,0,1,.11.42.55.55,0,0,1-.22.37.51.51,0,0,1-.41.11l-2.64-.36Z"/><path class="cls-130" d="M23.29,40.45l2.64-.36a.4.4,0,0,0,.27-.17.38.38,0,0,0,.09-.31.4.4,0,0,0-.17-.28.38.38,0,0,0-.31-.08l-2,.28-.52-3.77a.52.52,0,0,0-.21-.36.55.55,0,0,0-.41-.11.5.5,0,0,0-.36.22.48.48,0,0,0-.1.4l.56,4.14a.49.49,0,0,0,.17.33.46.46,0,0,0,.36.07Zm4.34-.53,2.78-.19a.35.35,0,0,0,.28-.14.37.37,0,0,0,.1-.3.37.37,0,0,0-.14-.28.37.37,0,0,0-.3-.1l-2.16.14-.1-1.33,1.7-.12a.35.35,0,0,0,.27-.13.45.45,0,0,0,.1-.3A.38.38,0,0,0,30,36.9a.36.36,0,0,0-.29-.09L28,36.92,28,35.59l2-.14a.4.4,0,0,0,.28-.14.38.38,0,0,0,.1-.3.37.37,0,0,0-.14-.29.38.38,0,0,0-.29-.1l-2.64.18a.48.48,0,0,0-.34.14.47.47,0,0,0-.09.36l.28,4.19a.48.48,0,0,0,.14.34.47.47,0,0,0,.36.09Zm3.72-4.72,1.34,3.92a.93.93,0,0,0,.33.45.87.87,0,0,0,.54.17,1,1,0,0,0,.55-.17.83.83,0,0,0,.32-.46l1.31-4h0a.41.41,0,0,0,0-.16.49.49,0,0,0-.14-.34.52.52,0,0,0-.35-.14.59.59,0,0,0-.29.1.53.53,0,0,0-.17.25L34,37.69c-.06.2-.11.41-.16.62h0s0,.07,0,.11l0,.16,0,.1h-.24l0-.1a.75.75,0,0,1,0-.16.43.43,0,0,1,0-.11h0a6.25,6.25,0,0,0-.16-.62l-.87-2.82a.42.42,0,0,0-.19-.26.51.51,0,0,0-.31-.11.49.49,0,0,0-.38.16.51.51,0,0,0-.16.37.86.86,0,0,0,0,.17Zm5.77,4.56,2.77.19a.41.41,0,0,0,.44-.39.37.37,0,0,0-.1-.3.38.38,0,0,0-.28-.14L37.78,39l.09-1.33,1.7.11a.33.33,0,0,0,.28-.1.36.36,0,0,0,.14-.27.39.39,0,0,0-.37-.42l-1.69-.12L38,35.51l2,.13a.37.37,0,0,0,.3-.1.37.37,0,0,0,.14-.28.37.37,0,0,0-.1-.3.35.35,0,0,0-.28-.14l-2.64-.18a.41.41,0,0,0-.49.43l-.29,4.19a.52.52,0,0,0,.09.36.5.5,0,0,0,.35.14Zm4.51.38,2.64.36a.37.37,0,0,0,.3-.08.4.4,0,0,0,.17-.28.42.42,0,0,0-.08-.31.39.39,0,0,0-.28-.16l-2-.28.52-3.77a.52.52,0,0,0-.1-.4.56.56,0,0,0-.37-.21.53.53,0,0,0-.61.46l-.57,4.14a.48.48,0,0,0,.07.37.47.47,0,0,0,.33.16Z"/><path class="cls-131" d="M41.53,37.43l-.3,2.18a.48.48,0,0,0,.07.37.47.47,0,0,0,.33.16l2.64.36a.37.37,0,0,0,.3-.08.4.4,0,0,0,.17-.28.42.42,0,0,0-.08-.31.39.39,0,0,0-.28-.16l-2-.28.25-1.83-1.08-.13Zm-4.85,1.83a.52.52,0,0,0,.09.36.5.5,0,0,0,.35.14l2.77.19a.41.41,0,0,0,.44-.39.37.37,0,0,0-.1-.3.38.38,0,0,0-.28-.14L37.78,39l.09-1.33,1.7.11a.33.33,0,0,0,.28-.1.36.36,0,0,0,.14-.27v-.11c-1-.09-2.08-.16-3.16-.21l-.15,2.2Zm-4-.14a.93.93,0,0,0,.33.45.87.87,0,0,0,.54.17,1,1,0,0,0,.55-.17.83.83,0,0,0,.32-.46l.7-2.11h-1l-.21.7c-.06.2-.11.41-.16.62h0s0,.07,0,.11l0,.16,0,.1h-.24l0-.1a.75.75,0,0,1,0-.16.43.43,0,0,1,0-.11h0a6.25,6.25,0,0,0-.16-.62L33,37l-1,0,.72,2.11Zm-5.56.37a.48.48,0,0,0,.14.34.47.47,0,0,0,.36.09l2.78-.19a.35.35,0,0,0,.28-.14.37.37,0,0,0,.1-.3.37.37,0,0,0-.14-.28.37.37,0,0,0-.3-.1l-2.16.14-.1-1.33,1.7-.12a.35.35,0,0,0,.27-.13.45.45,0,0,0,.1-.3s0-.07,0-.1c-1.08,0-2.13.12-3.16.22l.15,2.2Zm-.93.43a.38.38,0,0,0,.09-.31.4.4,0,0,0-.17-.28.38.38,0,0,0-.31-.08l-2,.28-.25-1.82-1.08.17.29,2.17a.49.49,0,0,0,.17.33.46.46,0,0,0,.36.07l2.64-.36a.4.4,0,0,0,.27-.17Z"/><path class="cls-132" d="M24.78,37.87a2.32,2.32,0,1,1-2.31-2.31A2.31,2.31,0,0,1,24.78,37.87Z"/><circle class="cls-133" cx="34.74" cy="38.29" r="1.65"/><path class="cls-134" d="M43.18,37.43a1.65,1.65,0,1,1-1.64-1.65A1.64,1.64,0,0,1,43.18,37.43Z"/></g></g></g></svg>