<svg xmlns="http://www.w3.org/2000/svg" xmlns:xlink="http://www.w3.org/1999/xlink" viewBox="0 0 261.42 38.52"><defs><style>.cls-1{fill:#fde888;}.cls-1,.cls-2,.cls-3,.cls-4,.cls-5{fill-rule:evenodd;}.cls-2,.cls-4,.cls-6,.cls-9{fill:#aa6427;}.cls-3{fill:url(#GradientFill_7);}.cls-10,.cls-4{stroke:#fde888;stroke-miterlimit:22.93;stroke-width:0.9px;}.cls-5,.cls-7{fill:#021d30;}.cls-7,.cls-9{font-size:13.27px;font-family:MyriadPro-Bold, Myriad Pro;font-weight:700;}.cls-8{letter-spacing:0.01em;}.cls-10{fill:#fff;}</style><radialGradient id="GradientFill_7" cx="130.71" cy="19.2" r="131.82" gradientUnits="userSpaceOnUse"><stop offset="0" stop-color="#fce886"/><stop offset="1" stop-color="#fdbc5d"/></radialGradient></defs><g id="Layer_2" data-name="Layer 2"><g id="Layer_1-2" data-name="Layer 1"><path class="cls-1" d="M11.6,0H249.82a11.65,11.65,0,0,1,11.6,11.6v9.63a11.67,11.67,0,0,1-11.6,11.61H11.6A11.66,11.66,0,0,1,0,21.23V11.6A11.63,11.63,0,0,1,11.6,0Z"/><path class="cls-2" d="M11.6,8.68H249.82a11.66,11.66,0,0,1,11.6,11.61v6.63a11.67,11.67,0,0,1-11.6,11.6H11.6A11.65,11.65,0,0,1,0,26.92V20.29A11.64,11.64,0,0,1,11.6,8.68Z"/><path class="cls-3" d="M12.09,2.11H249.33A12.13,12.13,0,0,1,261.42,14.2v10a12.15,12.15,0,0,1-12.09,12.1H12.09A12.15,12.15,0,0,1,0,24.19v-10A12.12,12.12,0,0,1,12.09,2.11Z"/><path class="cls-4" d="M205.54,23H244a5.58,5.58,0,0,1,5.56,5.57h0A5.57,5.57,0,0,1,244,34.1H205.54A5.58,5.58,0,0,1,200,28.54h0A5.58,5.58,0,0,1,205.54,23Z"/><path class="cls-4" d="M142.82,23h38.49a5.58,5.58,0,0,1,5.56,5.57h0a5.57,5.57,0,0,1-5.56,5.56H142.82a5.57,5.57,0,0,1-5.56-5.56h0A5.58,5.58,0,0,1,142.82,23Z"/><path class="cls-5" d="M17.41,23H55.89a5.58,5.58,0,0,1,5.56,5.57h0a5.57,5.57,0,0,1-5.56,5.56H17.41a5.58,5.58,0,0,1-5.57-5.56h0A5.59,5.59,0,0,1,17.41,23Z"/><path class="cls-4" d="M80,23h38.49a5.58,5.58,0,0,1,5.56,5.57h0a5.57,5.57,0,0,1-5.56,5.56H80a5.57,5.57,0,0,1-5.56-5.56h0A5.58,5.58,0,0,1,80,23Z"/><rect class="cls-6" x="67.5" y="5.85" width="1" height="25.7" rx="0.5"/><rect class="cls-6" x="130.21" y="6.85" width="1" height="25.7" rx="0.5"/><rect class="cls-6" x="192.92" y="5.85" width="1" height="25.7" rx="0.5"/><text class="cls-7" transform="translate(12.73 17.48)">L<tspan class="cls-8" x="6.78" y="0">E</tspan><tspan x="13.96" y="0">VEL 1</tspan></text><text class="cls-9" transform="translate(75.55 17.48)">L<tspan class="cls-8" x="6.78" y="0">E</tspan><tspan x="13.96" y="0">VEL 2</tspan></text><text class="cls-9" transform="translate(137.26 17.48)">L<tspan class="cls-8" x="6.78" y="0">E</tspan><tspan x="13.96" y="0">VEL 3</tspan></text><text class="cls-9" transform="translate(201.02 17.48)">L<tspan class="cls-8" x="6.78" y="0">E</tspan><tspan x="13.96" y="0">VEL 4</tspan></text><rect class="cls-10" x="15.15" y="25.3" width="43" height="6" rx="2.52"/><rect class="cls-10" x="77.85" y="25.37" width="43" height="6" rx="2.52"/><rect class="cls-10" x="140.57" y="25.37" width="43" height="6" rx="2.52"/><rect class="cls-10" x="203.28" y="25.37" width="43" height="6" rx="2.52"/></g></g></svg>